<?xml version="1.0" encoding="UTF-8" standalone="no"?>
<!DOCTYPE svg PUBLIC "-//W3C//DTD SVG 1.1//EN"
 "http://www.w3.org/Graphics/SVG/1.1/DTD/svg11.dtd">
<!-- Generated by graphviz version 2.44.1 (20200629.0846)
 -->
<!-- Title: Tree Pages: 1 -->
<svg width="2287pt" height="552pt"
 viewBox="0.00 0.00 2286.50 552.00" xmlns="http://www.w3.org/2000/svg" xmlns:xlink="http://www.w3.org/1999/xlink">
<g id="graph0" class="graph" transform="scale(1 1) rotate(0) translate(4 548)">
<title>Tree</title>
<polygon fill="white" stroke="transparent" points="-4,4 -4,-548 2282.5,-548 2282.5,4 -4,4"/>
<!-- 0 -->
<g id="node1" class="node">
<title>0</title>
<path fill="#f5cfb4" stroke="black" d="M1159.5,-544C1159.5,-544 1052.5,-544 1052.5,-544 1046.5,-544 1040.5,-538 1040.5,-532 1040.5,-532 1040.5,-473 1040.5,-473 1040.5,-467 1046.5,-461 1052.5,-461 1052.5,-461 1159.5,-461 1159.5,-461 1165.5,-461 1171.5,-467 1171.5,-473 1171.5,-473 1171.5,-532 1171.5,-532 1171.5,-538 1165.5,-544 1159.5,-544"/>
<text text-anchor="middle" x="1106" y="-528.8" font-family="Helvetica,sans-Serif" font-size="14.00">sex &lt;= 0.5</text>
<text text-anchor="middle" x="1106" y="-513.8" font-family="Helvetica,sans-Serif" font-size="14.00">gini = 0.473</text>
<text text-anchor="middle" x="1106" y="-498.8" font-family="Helvetica,sans-Serif" font-size="14.00">samples = 1178</text>
<text text-anchor="middle" x="1106" y="-483.8" font-family="Helvetica,sans-Serif" font-size="14.00">value = [726, 452]</text>
<text text-anchor="middle" x="1106" y="-468.8" font-family="Helvetica,sans-Serif" font-size="14.00">class = Unsurvived</text>
</g>
<!-- 1 -->
<g id="node2" class="node">
<title>1</title>
<path fill="#82c1ef" stroke="black" d="M865.5,-425C865.5,-425 764.5,-425 764.5,-425 758.5,-425 752.5,-419 752.5,-413 752.5,-413 752.5,-354 752.5,-354 752.5,-348 758.5,-342 764.5,-342 764.5,-342 865.5,-342 865.5,-342 871.5,-342 877.5,-348 877.5,-354 877.5,-354 877.5,-413 877.5,-413 877.5,-419 871.5,-425 865.5,-425"/>
<text text-anchor="middle" x="815" y="-409.8" font-family="Helvetica,sans-Serif" font-size="14.00">pclass &lt;= 2.5</text>
<text text-anchor="middle" x="815" y="-394.8" font-family="Helvetica,sans-Serif" font-size="14.00">gini = 0.394</text>
<text text-anchor="middle" x="815" y="-379.8" font-family="Helvetica,sans-Serif" font-size="14.00">samples = 426</text>
<text text-anchor="middle" x="815" y="-364.8" font-family="Helvetica,sans-Serif" font-size="14.00">value = [115, 311]</text>
<text text-anchor="middle" x="815" y="-349.8" font-family="Helvetica,sans-Serif" font-size="14.00">class = Survived</text>
</g>
<!-- 0&#45;&gt;1 -->
<g id="edge1" class="edge">
<title>0&#45;&gt;1</title>
<path fill="none" stroke="black" d="M1040.33,-475.1C994.85,-456.81 934.3,-432.47 887.42,-413.62"/>
<polygon fill="black" stroke="black" points="888.52,-410.29 877.93,-409.8 885.91,-416.78 888.52,-410.29"/>
<text text-anchor="middle" x="887.74" y="-429.1" font-family="Helvetica,sans-Serif" font-size="14.00">True</text>
</g>
<!-- 16 -->
<g id="node17" class="node">
<title>16</title>
<path fill="#eb9e67" stroke="black" d="M1450.5,-425C1450.5,-425 1343.5,-425 1343.5,-425 1337.5,-425 1331.5,-419 1331.5,-413 1331.5,-413 1331.5,-354 1331.5,-354 1331.5,-348 1337.5,-342 1343.5,-342 1343.5,-342 1450.5,-342 1450.5,-342 1456.5,-342 1462.5,-348 1462.5,-354 1462.5,-354 1462.5,-413 1462.5,-413 1462.5,-419 1456.5,-425 1450.5,-425"/>
<text text-anchor="middle" x="1397" y="-409.8" font-family="Helvetica,sans-Serif" font-size="14.00">age &lt;= 13.5</text>
<text text-anchor="middle" x="1397" y="-394.8" font-family="Helvetica,sans-Serif" font-size="14.00">gini = 0.305</text>
<text text-anchor="middle" x="1397" y="-379.8" font-family="Helvetica,sans-Serif" font-size="14.00">samples = 752</text>
<text text-anchor="middle" x="1397" y="-364.8" font-family="Helvetica,sans-Serif" font-size="14.00">value = [611, 141]</text>
<text text-anchor="middle" x="1397" y="-349.8" font-family="Helvetica,sans-Serif" font-size="14.00">class = Unsurvived</text>
</g>
<!-- 0&#45;&gt;16 -->
<g id="edge16" class="edge">
<title>0&#45;&gt;16</title>
<path fill="none" stroke="black" d="M1171.67,-475.1C1216.29,-457.16 1275.41,-433.39 1321.9,-414.7"/>
<polygon fill="black" stroke="black" points="1323.35,-417.89 1331.32,-410.91 1320.73,-411.39 1323.35,-417.89"/>
<text text-anchor="middle" x="1321.51" y="-430.2" font-family="Helvetica,sans-Serif" font-size="14.00">False</text>
</g>
<!-- 2 -->
<g id="node3" class="node">
<title>2</title>
<path fill="#48a4e7" stroke="black" d="M455.5,-306C455.5,-306 362.5,-306 362.5,-306 356.5,-306 350.5,-300 350.5,-294 350.5,-294 350.5,-235 350.5,-235 350.5,-229 356.5,-223 362.5,-223 362.5,-223 455.5,-223 455.5,-223 461.5,-223 467.5,-229 467.5,-235 467.5,-235 467.5,-294 467.5,-294 467.5,-300 461.5,-306 455.5,-306"/>
<text text-anchor="middle" x="409" y="-290.8" font-family="Helvetica,sans-Serif" font-size="14.00">fare &lt;= 26.125</text>
<text text-anchor="middle" x="409" y="-275.8" font-family="Helvetica,sans-Serif" font-size="14.00">gini = 0.129</text>
<text text-anchor="middle" x="409" y="-260.8" font-family="Helvetica,sans-Serif" font-size="14.00">samples = 230</text>
<text text-anchor="middle" x="409" y="-245.8" font-family="Helvetica,sans-Serif" font-size="14.00">value = [16, 214]</text>
<text text-anchor="middle" x="409" y="-230.8" font-family="Helvetica,sans-Serif" font-size="14.00">class = Survived</text>
</g>
<!-- 1&#45;&gt;2 -->
<g id="edge2" class="edge">
<title>1&#45;&gt;2</title>
<path fill="none" stroke="black" d="M752.45,-364.48C678.16,-343.07 554.64,-307.47 477.73,-285.31"/>
<polygon fill="black" stroke="black" points="478.24,-281.81 467.66,-282.4 476.3,-288.54 478.24,-281.81"/>
</g>
<!-- 9 -->
<g id="node10" class="node">
<title>9</title>
<path fill="#fefcfb" stroke="black" d="M868.5,-306C868.5,-306 761.5,-306 761.5,-306 755.5,-306 749.5,-300 749.5,-294 749.5,-294 749.5,-235 749.5,-235 749.5,-229 755.5,-223 761.5,-223 761.5,-223 868.5,-223 868.5,-223 874.5,-223 880.5,-229 880.5,-235 880.5,-235 880.5,-294 880.5,-294 880.5,-300 874.5,-306 868.5,-306"/>
<text text-anchor="middle" x="815" y="-290.8" font-family="Helvetica,sans-Serif" font-size="14.00">fare &lt;= 23.35</text>
<text text-anchor="middle" x="815" y="-275.8" font-family="Helvetica,sans-Serif" font-size="14.00">gini = 0.5</text>
<text text-anchor="middle" x="815" y="-260.8" font-family="Helvetica,sans-Serif" font-size="14.00">samples = 196</text>
<text text-anchor="middle" x="815" y="-245.8" font-family="Helvetica,sans-Serif" font-size="14.00">value = [99, 97]</text>
<text text-anchor="middle" x="815" y="-230.8" font-family="Helvetica,sans-Serif" font-size="14.00">class = Unsurvived</text>
</g>
<!-- 1&#45;&gt;9 -->
<g id="edge9" class="edge">
<title>1&#45;&gt;9</title>
<path fill="none" stroke="black" d="M815,-341.91C815,-333.65 815,-324.86 815,-316.3"/>
<polygon fill="black" stroke="black" points="818.5,-316.02 815,-306.02 811.5,-316.02 818.5,-316.02"/>
</g>
<!-- 3 -->
<g id="node4" class="node">
<title>3</title>
<path fill="#5dafea" stroke="black" d="M246,-187C246,-187 154,-187 154,-187 148,-187 142,-181 142,-175 142,-175 142,-116 142,-116 142,-110 148,-104 154,-104 154,-104 246,-104 246,-104 252,-104 258,-110 258,-116 258,-116 258,-175 258,-175 258,-181 252,-187 246,-187"/>
<text text-anchor="middle" x="200" y="-171.8" font-family="Helvetica,sans-Serif" font-size="14.00">age &lt;= 56.0</text>
<text text-anchor="middle" x="200" y="-156.8" font-family="Helvetica,sans-Serif" font-size="14.00">gini = 0.259</text>
<text text-anchor="middle" x="200" y="-141.8" font-family="Helvetica,sans-Serif" font-size="14.00">samples = 72</text>
<text text-anchor="middle" x="200" y="-126.8" font-family="Helvetica,sans-Serif" font-size="14.00">value = [11, 61]</text>
<text text-anchor="middle" x="200" y="-111.8" font-family="Helvetica,sans-Serif" font-size="14.00">class = Survived</text>
</g>
<!-- 2&#45;&gt;3 -->
<g id="edge3" class="edge">
<title>2&#45;&gt;3</title>
<path fill="none" stroke="black" d="M350.23,-230.6C324.41,-216.15 293.95,-199.1 267.24,-184.14"/>
<polygon fill="black" stroke="black" points="268.77,-180.99 258.33,-179.16 265.35,-187.09 268.77,-180.99"/>
</g>
<!-- 6 -->
<g id="node7" class="node">
<title>6</title>
<path fill="#3fa0e6" stroke="black" d="M455,-187C455,-187 363,-187 363,-187 357,-187 351,-181 351,-175 351,-175 351,-116 351,-116 351,-110 357,-104 363,-104 363,-104 455,-104 455,-104 461,-104 467,-110 467,-116 467,-116 467,-175 467,-175 467,-181 461,-187 455,-187"/>
<text text-anchor="middle" x="409" y="-171.8" font-family="Helvetica,sans-Serif" font-size="14.00">age &lt;= 2.5</text>
<text text-anchor="middle" x="409" y="-156.8" font-family="Helvetica,sans-Serif" font-size="14.00">gini = 0.061</text>
<text text-anchor="middle" x="409" y="-141.8" font-family="Helvetica,sans-Serif" font-size="14.00">samples = 158</text>
<text text-anchor="middle" x="409" y="-126.8" font-family="Helvetica,sans-Serif" font-size="14.00">value = [5, 153]</text>
<text text-anchor="middle" x="409" y="-111.8" font-family="Helvetica,sans-Serif" font-size="14.00">class = Survived</text>
</g>
<!-- 2&#45;&gt;6 -->
<g id="edge6" class="edge">
<title>2&#45;&gt;6</title>
<path fill="none" stroke="black" d="M409,-222.91C409,-214.65 409,-205.86 409,-197.3"/>
<polygon fill="black" stroke="black" points="412.5,-197.02 409,-187.02 405.5,-197.02 412.5,-197.02"/>
</g>
<!-- 4 -->
<g id="node5" class="node">
<title>4</title>
<path fill="#56abe9" stroke="black" d="M104,-68C104,-68 12,-68 12,-68 6,-68 0,-62 0,-56 0,-56 0,-12 0,-12 0,-6 6,0 12,0 12,0 104,0 104,0 110,0 116,-6 116,-12 116,-12 116,-56 116,-56 116,-62 110,-68 104,-68"/>
<text text-anchor="middle" x="58" y="-52.8" font-family="Helvetica,sans-Serif" font-size="14.00">gini = 0.224</text>
<text text-anchor="middle" x="58" y="-37.8" font-family="Helvetica,sans-Serif" font-size="14.00">samples = 70</text>
<text text-anchor="middle" x="58" y="-22.8" font-family="Helvetica,sans-Serif" font-size="14.00">value = [9, 61]</text>
<text text-anchor="middle" x="58" y="-7.8" font-family="Helvetica,sans-Serif" font-size="14.00">class = Survived</text>
</g>
<!-- 3&#45;&gt;4 -->
<g id="edge4" class="edge">
<title>3&#45;&gt;4</title>
<path fill="none" stroke="black" d="M147.12,-103.73C134.71,-94.15 121.49,-83.96 109.15,-74.44"/>
<polygon fill="black" stroke="black" points="111.24,-71.63 101.18,-68.3 106.96,-77.18 111.24,-71.63"/>
</g>
<!-- 5 -->
<g id="node6" class="node">
<title>5</title>
<path fill="#e58139" stroke="black" d="M253.5,-68C253.5,-68 146.5,-68 146.5,-68 140.5,-68 134.5,-62 134.5,-56 134.5,-56 134.5,-12 134.5,-12 134.5,-6 140.5,0 146.5,0 146.5,0 253.5,0 253.5,0 259.5,0 265.5,-6 265.5,-12 265.5,-12 265.5,-56 265.5,-56 265.5,-62 259.5,-68 253.5,-68"/>
<text text-anchor="middle" x="200" y="-52.8" font-family="Helvetica,sans-Serif" font-size="14.00">gini = 0.0</text>
<text text-anchor="middle" x="200" y="-37.8" font-family="Helvetica,sans-Serif" font-size="14.00">samples = 2</text>
<text text-anchor="middle" x="200" y="-22.8" font-family="Helvetica,sans-Serif" font-size="14.00">value = [2, 0]</text>
<text text-anchor="middle" x="200" y="-7.8" font-family="Helvetica,sans-Serif" font-size="14.00">class = Unsurvived</text>
</g>
<!-- 3&#45;&gt;5 -->
<g id="edge5" class="edge">
<title>3&#45;&gt;5</title>
<path fill="none" stroke="black" d="M200,-103.73C200,-95.52 200,-86.86 200,-78.56"/>
<polygon fill="black" stroke="black" points="203.5,-78.3 200,-68.3 196.5,-78.3 203.5,-78.3"/>
</g>
<!-- 7 -->
<g id="node8" class="node">
<title>7</title>
<path fill="#9ccef2" stroke="black" d="M388,-68C388,-68 296,-68 296,-68 290,-68 284,-62 284,-56 284,-56 284,-12 284,-12 284,-6 290,0 296,0 296,0 388,0 388,0 394,0 400,-6 400,-12 400,-12 400,-56 400,-56 400,-62 394,-68 388,-68"/>
<text text-anchor="middle" x="342" y="-52.8" font-family="Helvetica,sans-Serif" font-size="14.00">gini = 0.444</text>
<text text-anchor="middle" x="342" y="-37.8" font-family="Helvetica,sans-Serif" font-size="14.00">samples = 3</text>
<text text-anchor="middle" x="342" y="-22.8" font-family="Helvetica,sans-Serif" font-size="14.00">value = [1, 2]</text>
<text text-anchor="middle" x="342" y="-7.8" font-family="Helvetica,sans-Serif" font-size="14.00">class = Survived</text>
</g>
<!-- 6&#45;&gt;7 -->
<g id="edge7" class="edge">
<title>6&#45;&gt;7</title>
<path fill="none" stroke="black" d="M384.05,-103.73C378.69,-94.97 373.02,-85.7 367.64,-76.91"/>
<polygon fill="black" stroke="black" points="370.58,-75 362.38,-68.3 364.61,-78.66 370.58,-75"/>
</g>
<!-- 8 -->
<g id="node9" class="node">
<title>8</title>
<path fill="#3ea0e6" stroke="black" d="M522,-68C522,-68 430,-68 430,-68 424,-68 418,-62 418,-56 418,-56 418,-12 418,-12 418,-6 424,0 430,0 430,0 522,0 522,0 528,0 534,-6 534,-12 534,-12 534,-56 534,-56 534,-62 528,-68 522,-68"/>
<text text-anchor="middle" x="476" y="-52.8" font-family="Helvetica,sans-Serif" font-size="14.00">gini = 0.05</text>
<text text-anchor="middle" x="476" y="-37.8" font-family="Helvetica,sans-Serif" font-size="14.00">samples = 155</text>
<text text-anchor="middle" x="476" y="-22.8" font-family="Helvetica,sans-Serif" font-size="14.00">value = [4, 151]</text>
<text text-anchor="middle" x="476" y="-7.8" font-family="Helvetica,sans-Serif" font-size="14.00">class = Survived</text>
</g>
<!-- 6&#45;&gt;8 -->
<g id="edge8" class="edge">
<title>6&#45;&gt;8</title>
<path fill="none" stroke="black" d="M433.95,-103.73C439.31,-94.97 444.98,-85.7 450.36,-76.91"/>
<polygon fill="black" stroke="black" points="453.39,-78.66 455.62,-68.3 447.42,-75 453.39,-78.66"/>
</g>
<!-- 10 -->
<g id="node11" class="node">
<title>10</title>
<path fill="#cde6f8" stroke="black" d="M790,-187C790,-187 698,-187 698,-187 692,-187 686,-181 686,-175 686,-175 686,-116 686,-116 686,-110 692,-104 698,-104 698,-104 790,-104 790,-104 796,-104 802,-110 802,-116 802,-116 802,-175 802,-175 802,-181 796,-187 790,-187"/>
<text text-anchor="middle" x="744" y="-171.8" font-family="Helvetica,sans-Serif" font-size="14.00">fare &lt;= 7.267</text>
<text text-anchor="middle" x="744" y="-156.8" font-family="Helvetica,sans-Serif" font-size="14.00">gini = 0.49</text>
<text text-anchor="middle" x="744" y="-141.8" font-family="Helvetica,sans-Serif" font-size="14.00">samples = 166</text>
<text text-anchor="middle" x="744" y="-126.8" font-family="Helvetica,sans-Serif" font-size="14.00">value = [71, 95]</text>
<text text-anchor="middle" x="744" y="-111.8" font-family="Helvetica,sans-Serif" font-size="14.00">class = Survived</text>
</g>
<!-- 9&#45;&gt;10 -->
<g id="edge10" class="edge">
<title>9&#45;&gt;10</title>
<path fill="none" stroke="black" d="M790.37,-222.91C785.03,-214.1 779.32,-204.7 773.8,-195.61"/>
<polygon fill="black" stroke="black" points="776.77,-193.75 768.59,-187.02 770.79,-197.39 776.77,-193.75"/>
</g>
<!-- 13 -->
<g id="node14" class="node">
<title>13</title>
<path fill="#e78a47" stroke="black" d="M939.5,-187C939.5,-187 832.5,-187 832.5,-187 826.5,-187 820.5,-181 820.5,-175 820.5,-175 820.5,-116 820.5,-116 820.5,-110 826.5,-104 832.5,-104 832.5,-104 939.5,-104 939.5,-104 945.5,-104 951.5,-110 951.5,-116 951.5,-116 951.5,-175 951.5,-175 951.5,-181 945.5,-187 939.5,-187"/>
<text text-anchor="middle" x="886" y="-171.8" font-family="Helvetica,sans-Serif" font-size="14.00">age &lt;= 5.5</text>
<text text-anchor="middle" x="886" y="-156.8" font-family="Helvetica,sans-Serif" font-size="14.00">gini = 0.124</text>
<text text-anchor="middle" x="886" y="-141.8" font-family="Helvetica,sans-Serif" font-size="14.00">samples = 30</text>
<text text-anchor="middle" x="886" y="-126.8" font-family="Helvetica,sans-Serif" font-size="14.00">value = [28, 2]</text>
<text text-anchor="middle" x="886" y="-111.8" font-family="Helvetica,sans-Serif" font-size="14.00">class = Unsurvived</text>
</g>
<!-- 9&#45;&gt;13 -->
<g id="edge13" class="edge">
<title>9&#45;&gt;13</title>
<path fill="none" stroke="black" d="M839.63,-222.91C844.97,-214.1 850.68,-204.7 856.2,-195.61"/>
<polygon fill="black" stroke="black" points="859.21,-197.39 861.41,-187.02 853.23,-193.75 859.21,-197.39"/>
</g>
<!-- 11 -->
<g id="node12" class="node">
<title>11</title>
<path fill="#4da7e8" stroke="black" d="M656,-68C656,-68 564,-68 564,-68 558,-68 552,-62 552,-56 552,-56 552,-12 552,-12 552,-6 558,0 564,0 564,0 656,0 656,0 662,0 668,-6 668,-12 668,-12 668,-56 668,-56 668,-62 662,-68 656,-68"/>
<text text-anchor="middle" x="610" y="-52.8" font-family="Helvetica,sans-Serif" font-size="14.00">gini = 0.165</text>
<text text-anchor="middle" x="610" y="-37.8" font-family="Helvetica,sans-Serif" font-size="14.00">samples = 11</text>
<text text-anchor="middle" x="610" y="-22.8" font-family="Helvetica,sans-Serif" font-size="14.00">value = [1, 10]</text>
<text text-anchor="middle" x="610" y="-7.8" font-family="Helvetica,sans-Serif" font-size="14.00">class = Survived</text>
</g>
<!-- 10&#45;&gt;11 -->
<g id="edge11" class="edge">
<title>10&#45;&gt;11</title>
<path fill="none" stroke="black" d="M694.1,-103.73C682.5,-94.24 670.15,-84.16 658.6,-74.72"/>
<polygon fill="black" stroke="black" points="660.71,-71.92 650.75,-68.3 656.28,-77.34 660.71,-71.92"/>
</g>
<!-- 12 -->
<g id="node13" class="node">
<title>12</title>
<path fill="#dceefa" stroke="black" d="M790,-68C790,-68 698,-68 698,-68 692,-68 686,-62 686,-56 686,-56 686,-12 686,-12 686,-6 692,0 698,0 698,0 790,0 790,0 796,0 802,-6 802,-12 802,-12 802,-56 802,-56 802,-62 796,-68 790,-68"/>
<text text-anchor="middle" x="744" y="-52.8" font-family="Helvetica,sans-Serif" font-size="14.00">gini = 0.495</text>
<text text-anchor="middle" x="744" y="-37.8" font-family="Helvetica,sans-Serif" font-size="14.00">samples = 155</text>
<text text-anchor="middle" x="744" y="-22.8" font-family="Helvetica,sans-Serif" font-size="14.00">value = [70, 85]</text>
<text text-anchor="middle" x="744" y="-7.8" font-family="Helvetica,sans-Serif" font-size="14.00">class = Survived</text>
</g>
<!-- 10&#45;&gt;12 -->
<g id="edge12" class="edge">
<title>10&#45;&gt;12</title>
<path fill="none" stroke="black" d="M744,-103.73C744,-95.52 744,-86.86 744,-78.56"/>
<polygon fill="black" stroke="black" points="747.5,-78.3 744,-68.3 740.5,-78.3 747.5,-78.3"/>
</g>
<!-- 14 -->
<g id="node15" class="node">
<title>14</title>
<path fill="#ffffff" stroke="black" d="M939.5,-68C939.5,-68 832.5,-68 832.5,-68 826.5,-68 820.5,-62 820.5,-56 820.5,-56 820.5,-12 820.5,-12 820.5,-6 826.5,0 832.5,0 832.5,0 939.5,0 939.5,0 945.5,0 951.5,-6 951.5,-12 951.5,-12 951.5,-56 951.5,-56 951.5,-62 945.5,-68 939.5,-68"/>
<text text-anchor="middle" x="886" y="-52.8" font-family="Helvetica,sans-Serif" font-size="14.00">gini = 0.5</text>
<text text-anchor="middle" x="886" y="-37.8" font-family="Helvetica,sans-Serif" font-size="14.00">samples = 2</text>
<text text-anchor="middle" x="886" y="-22.8" font-family="Helvetica,sans-Serif" font-size="14.00">value = [1, 1]</text>
<text text-anchor="middle" x="886" y="-7.8" font-family="Helvetica,sans-Serif" font-size="14.00">class = Unsurvived</text>
</g>
<!-- 13&#45;&gt;14 -->
<g id="edge14" class="edge">
<title>13&#45;&gt;14</title>
<path fill="none" stroke="black" d="M886,-103.73C886,-95.52 886,-86.86 886,-78.56"/>
<polygon fill="black" stroke="black" points="889.5,-78.3 886,-68.3 882.5,-78.3 889.5,-78.3"/>
</g>
<!-- 15 -->
<g id="node16" class="node">
<title>15</title>
<path fill="#e68640" stroke="black" d="M1088.5,-68C1088.5,-68 981.5,-68 981.5,-68 975.5,-68 969.5,-62 969.5,-56 969.5,-56 969.5,-12 969.5,-12 969.5,-6 975.5,0 981.5,0 981.5,0 1088.5,0 1088.5,0 1094.5,0 1100.5,-6 1100.5,-12 1100.5,-12 1100.5,-56 1100.5,-56 1100.5,-62 1094.5,-68 1088.5,-68"/>
<text text-anchor="middle" x="1035" y="-52.8" font-family="Helvetica,sans-Serif" font-size="14.00">gini = 0.069</text>
<text text-anchor="middle" x="1035" y="-37.8" font-family="Helvetica,sans-Serif" font-size="14.00">samples = 28</text>
<text text-anchor="middle" x="1035" y="-22.8" font-family="Helvetica,sans-Serif" font-size="14.00">value = [27, 1]</text>
<text text-anchor="middle" x="1035" y="-7.8" font-family="Helvetica,sans-Serif" font-size="14.00">class = Unsurvived</text>
</g>
<!-- 13&#45;&gt;15 -->
<g id="edge15" class="edge">
<title>13&#45;&gt;15</title>
<path fill="none" stroke="black" d="M941.48,-103.73C954.51,-94.15 968.38,-83.96 981.33,-74.44"/>
<polygon fill="black" stroke="black" points="983.7,-77.04 989.69,-68.3 979.56,-71.4 983.7,-77.04"/>
</g>
<!-- 17 -->
<g id="node18" class="node">
<title>17</title>
<path fill="#eef6fd" stroke="black" d="M1443,-306C1443,-306 1351,-306 1351,-306 1345,-306 1339,-300 1339,-294 1339,-294 1339,-235 1339,-235 1339,-229 1345,-223 1351,-223 1351,-223 1443,-223 1443,-223 1449,-223 1455,-229 1455,-235 1455,-235 1455,-294 1455,-294 1455,-300 1449,-306 1443,-306"/>
<text text-anchor="middle" x="1397" y="-290.8" font-family="Helvetica,sans-Serif" font-size="14.00">sibsp &lt;= 2.5</text>
<text text-anchor="middle" x="1397" y="-275.8" font-family="Helvetica,sans-Serif" font-size="14.00">gini = 0.499</text>
<text text-anchor="middle" x="1397" y="-260.8" font-family="Helvetica,sans-Serif" font-size="14.00">samples = 44</text>
<text text-anchor="middle" x="1397" y="-245.8" font-family="Helvetica,sans-Serif" font-size="14.00">value = [21, 23]</text>
<text text-anchor="middle" x="1397" y="-230.8" font-family="Helvetica,sans-Serif" font-size="14.00">class = Survived</text>
</g>
<!-- 16&#45;&gt;17 -->
<g id="edge17" class="edge">
<title>16&#45;&gt;17</title>
<path fill="none" stroke="black" d="M1397,-341.91C1397,-333.65 1397,-324.86 1397,-316.3"/>
<polygon fill="black" stroke="black" points="1400.5,-316.02 1397,-306.02 1393.5,-316.02 1400.5,-316.02"/>
</g>
<!-- 24 -->
<g id="node25" class="node">
<title>24</title>
<path fill="#ea9a61" stroke="black" d="M1893.5,-306C1893.5,-306 1786.5,-306 1786.5,-306 1780.5,-306 1774.5,-300 1774.5,-294 1774.5,-294 1774.5,-235 1774.5,-235 1774.5,-229 1780.5,-223 1786.5,-223 1786.5,-223 1893.5,-223 1893.5,-223 1899.5,-223 1905.5,-229 1905.5,-235 1905.5,-235 1905.5,-294 1905.5,-294 1905.5,-300 1899.5,-306 1893.5,-306"/>
<text text-anchor="middle" x="1840" y="-290.8" font-family="Helvetica,sans-Serif" font-size="14.00">pclass &lt;= 1.5</text>
<text text-anchor="middle" x="1840" y="-275.8" font-family="Helvetica,sans-Serif" font-size="14.00">gini = 0.278</text>
<text text-anchor="middle" x="1840" y="-260.8" font-family="Helvetica,sans-Serif" font-size="14.00">samples = 708</text>
<text text-anchor="middle" x="1840" y="-245.8" font-family="Helvetica,sans-Serif" font-size="14.00">value = [590, 118]</text>
<text text-anchor="middle" x="1840" y="-230.8" font-family="Helvetica,sans-Serif" font-size="14.00">class = Unsurvived</text>
</g>
<!-- 16&#45;&gt;24 -->
<g id="edge24" class="edge">
<title>16&#45;&gt;24</title>
<path fill="none" stroke="black" d="M1462.84,-365.11C1543.41,-343.83 1679.53,-307.88 1764.33,-285.48"/>
<polygon fill="black" stroke="black" points="1765.38,-288.83 1774.16,-282.89 1763.59,-282.06 1765.38,-288.83"/>
</g>
<!-- 18 -->
<g id="node19" class="node">
<title>18</title>
<path fill="#5dafea" stroke="black" d="M1372,-187C1372,-187 1280,-187 1280,-187 1274,-187 1268,-181 1268,-175 1268,-175 1268,-116 1268,-116 1268,-110 1274,-104 1280,-104 1280,-104 1372,-104 1372,-104 1378,-104 1384,-110 1384,-116 1384,-116 1384,-175 1384,-175 1384,-181 1378,-187 1372,-187"/>
<text text-anchor="middle" x="1326" y="-171.8" font-family="Helvetica,sans-Serif" font-size="14.00">age &lt;= 0.792</text>
<text text-anchor="middle" x="1326" y="-156.8" font-family="Helvetica,sans-Serif" font-size="14.00">gini = 0.26</text>
<text text-anchor="middle" x="1326" y="-141.8" font-family="Helvetica,sans-Serif" font-size="14.00">samples = 26</text>
<text text-anchor="middle" x="1326" y="-126.8" font-family="Helvetica,sans-Serif" font-size="14.00">value = [4, 22]</text>
<text text-anchor="middle" x="1326" y="-111.8" font-family="Helvetica,sans-Serif" font-size="14.00">class = Survived</text>
</g>
<!-- 17&#45;&gt;18 -->
<g id="edge18" class="edge">
<title>17&#45;&gt;18</title>
<path fill="none" stroke="black" d="M1372.37,-222.91C1367.03,-214.1 1361.32,-204.7 1355.8,-195.61"/>
<polygon fill="black" stroke="black" points="1358.77,-193.75 1350.59,-187.02 1352.79,-197.39 1358.77,-193.75"/>
</g>
<!-- 21 -->
<g id="node22" class="node">
<title>21</title>
<path fill="#e78845" stroke="black" d="M1521.5,-187C1521.5,-187 1414.5,-187 1414.5,-187 1408.5,-187 1402.5,-181 1402.5,-175 1402.5,-175 1402.5,-116 1402.5,-116 1402.5,-110 1408.5,-104 1414.5,-104 1414.5,-104 1521.5,-104 1521.5,-104 1527.5,-104 1533.5,-110 1533.5,-116 1533.5,-116 1533.5,-175 1533.5,-175 1533.5,-181 1527.5,-187 1521.5,-187"/>
<text text-anchor="middle" x="1468" y="-171.8" font-family="Helvetica,sans-Serif" font-size="14.00">age &lt;= 3.5</text>
<text text-anchor="middle" x="1468" y="-156.8" font-family="Helvetica,sans-Serif" font-size="14.00">gini = 0.105</text>
<text text-anchor="middle" x="1468" y="-141.8" font-family="Helvetica,sans-Serif" font-size="14.00">samples = 18</text>
<text text-anchor="middle" x="1468" y="-126.8" font-family="Helvetica,sans-Serif" font-size="14.00">value = [17, 1]</text>
<text text-anchor="middle" x="1468" y="-111.8" font-family="Helvetica,sans-Serif" font-size="14.00">class = Unsurvived</text>
</g>
<!-- 17&#45;&gt;21 -->
<g id="edge21" class="edge">
<title>17&#45;&gt;21</title>
<path fill="none" stroke="black" d="M1421.63,-222.91C1426.97,-214.1 1432.68,-204.7 1438.2,-195.61"/>
<polygon fill="black" stroke="black" points="1441.21,-197.39 1443.41,-187.02 1435.23,-193.75 1441.21,-197.39"/>
</g>
<!-- 19 -->
<g id="node20" class="node">
<title>19</title>
<path fill="#e58139" stroke="black" d="M1237.5,-68C1237.5,-68 1130.5,-68 1130.5,-68 1124.5,-68 1118.5,-62 1118.5,-56 1118.5,-56 1118.5,-12 1118.5,-12 1118.5,-6 1124.5,0 1130.5,0 1130.5,0 1237.5,0 1237.5,0 1243.5,0 1249.5,-6 1249.5,-12 1249.5,-12 1249.5,-56 1249.5,-56 1249.5,-62 1243.5,-68 1237.5,-68"/>
<text text-anchor="middle" x="1184" y="-52.8" font-family="Helvetica,sans-Serif" font-size="14.00">gini = 0.0</text>
<text text-anchor="middle" x="1184" y="-37.8" font-family="Helvetica,sans-Serif" font-size="14.00">samples = 2</text>
<text text-anchor="middle" x="1184" y="-22.8" font-family="Helvetica,sans-Serif" font-size="14.00">value = [2, 0]</text>
<text text-anchor="middle" x="1184" y="-7.8" font-family="Helvetica,sans-Serif" font-size="14.00">class = Unsurvived</text>
</g>
<!-- 18&#45;&gt;19 -->
<g id="edge19" class="edge">
<title>18&#45;&gt;19</title>
<path fill="none" stroke="black" d="M1273.12,-103.73C1260.71,-94.15 1247.49,-83.96 1235.15,-74.44"/>
<polygon fill="black" stroke="black" points="1237.24,-71.63 1227.18,-68.3 1232.96,-77.18 1237.24,-71.63"/>
</g>
<!-- 20 -->
<g id="node21" class="node">
<title>20</title>
<path fill="#4ba6e7" stroke="black" d="M1372,-68C1372,-68 1280,-68 1280,-68 1274,-68 1268,-62 1268,-56 1268,-56 1268,-12 1268,-12 1268,-6 1274,0 1280,0 1280,0 1372,0 1372,0 1378,0 1384,-6 1384,-12 1384,-12 1384,-56 1384,-56 1384,-62 1378,-68 1372,-68"/>
<text text-anchor="middle" x="1326" y="-52.8" font-family="Helvetica,sans-Serif" font-size="14.00">gini = 0.153</text>
<text text-anchor="middle" x="1326" y="-37.8" font-family="Helvetica,sans-Serif" font-size="14.00">samples = 24</text>
<text text-anchor="middle" x="1326" y="-22.8" font-family="Helvetica,sans-Serif" font-size="14.00">value = [2, 22]</text>
<text text-anchor="middle" x="1326" y="-7.8" font-family="Helvetica,sans-Serif" font-size="14.00">class = Survived</text>
</g>
<!-- 18&#45;&gt;20 -->
<g id="edge20" class="edge">
<title>18&#45;&gt;20</title>
<path fill="none" stroke="black" d="M1326,-103.73C1326,-95.52 1326,-86.86 1326,-78.56"/>
<polygon fill="black" stroke="black" points="1329.5,-78.3 1326,-68.3 1322.5,-78.3 1329.5,-78.3"/>
</g>
<!-- 22 -->
<g id="node23" class="node">
<title>22</title>
<path fill="#eca06a" stroke="black" d="M1521.5,-68C1521.5,-68 1414.5,-68 1414.5,-68 1408.5,-68 1402.5,-62 1402.5,-56 1402.5,-56 1402.5,-12 1402.5,-12 1402.5,-6 1408.5,0 1414.5,0 1414.5,0 1521.5,0 1521.5,0 1527.5,0 1533.5,-6 1533.5,-12 1533.5,-12 1533.5,-56 1533.5,-56 1533.5,-62 1527.5,-68 1521.5,-68"/>
<text text-anchor="middle" x="1468" y="-52.8" font-family="Helvetica,sans-Serif" font-size="14.00">gini = 0.32</text>
<text text-anchor="middle" x="1468" y="-37.8" font-family="Helvetica,sans-Serif" font-size="14.00">samples = 5</text>
<text text-anchor="middle" x="1468" y="-22.8" font-family="Helvetica,sans-Serif" font-size="14.00">value = [4, 1]</text>
<text text-anchor="middle" x="1468" y="-7.8" font-family="Helvetica,sans-Serif" font-size="14.00">class = Unsurvived</text>
</g>
<!-- 21&#45;&gt;22 -->
<g id="edge22" class="edge">
<title>21&#45;&gt;22</title>
<path fill="none" stroke="black" d="M1468,-103.73C1468,-95.52 1468,-86.86 1468,-78.56"/>
<polygon fill="black" stroke="black" points="1471.5,-78.3 1468,-68.3 1464.5,-78.3 1471.5,-78.3"/>
</g>
<!-- 23 -->
<g id="node24" class="node">
<title>23</title>
<path fill="#e58139" stroke="black" d="M1670.5,-68C1670.5,-68 1563.5,-68 1563.5,-68 1557.5,-68 1551.5,-62 1551.5,-56 1551.5,-56 1551.5,-12 1551.5,-12 1551.5,-6 1557.5,0 1563.5,0 1563.5,0 1670.5,0 1670.5,0 1676.5,0 1682.5,-6 1682.5,-12 1682.5,-12 1682.5,-56 1682.5,-56 1682.5,-62 1676.5,-68 1670.5,-68"/>
<text text-anchor="middle" x="1617" y="-52.8" font-family="Helvetica,sans-Serif" font-size="14.00">gini = 0.0</text>
<text text-anchor="middle" x="1617" y="-37.8" font-family="Helvetica,sans-Serif" font-size="14.00">samples = 13</text>
<text text-anchor="middle" x="1617" y="-22.8" font-family="Helvetica,sans-Serif" font-size="14.00">value = [13, 0]</text>
<text text-anchor="middle" x="1617" y="-7.8" font-family="Helvetica,sans-Serif" font-size="14.00">class = Unsurvived</text>
</g>
<!-- 21&#45;&gt;23 -->
<g id="edge23" class="edge">
<title>21&#45;&gt;23</title>
<path fill="none" stroke="black" d="M1523.48,-103.73C1536.51,-94.15 1550.38,-83.96 1563.33,-74.44"/>
<polygon fill="black" stroke="black" points="1565.7,-77.04 1571.69,-68.3 1561.56,-71.4 1565.7,-77.04"/>
</g>
<!-- 25 -->
<g id="node26" class="node">
<title>25</title>
<path fill="#f1bb95" stroke="black" d="M1893.5,-187C1893.5,-187 1786.5,-187 1786.5,-187 1780.5,-187 1774.5,-181 1774.5,-175 1774.5,-175 1774.5,-116 1774.5,-116 1774.5,-110 1780.5,-104 1786.5,-104 1786.5,-104 1893.5,-104 1893.5,-104 1899.5,-104 1905.5,-110 1905.5,-116 1905.5,-116 1905.5,-175 1905.5,-175 1905.5,-181 1899.5,-187 1893.5,-187"/>
<text text-anchor="middle" x="1840" y="-171.8" font-family="Helvetica,sans-Serif" font-size="14.00">age &lt;= 54.5</text>
<text text-anchor="middle" x="1840" y="-156.8" font-family="Helvetica,sans-Serif" font-size="14.00">gini = 0.432</text>
<text text-anchor="middle" x="1840" y="-141.8" font-family="Helvetica,sans-Serif" font-size="14.00">samples = 155</text>
<text text-anchor="middle" x="1840" y="-126.8" font-family="Helvetica,sans-Serif" font-size="14.00">value = [106, 49]</text>
<text text-anchor="middle" x="1840" y="-111.8" font-family="Helvetica,sans-Serif" font-size="14.00">class = Unsurvived</text>
</g>
<!-- 24&#45;&gt;25 -->
<g id="edge25" class="edge">
<title>24&#45;&gt;25</title>
<path fill="none" stroke="black" d="M1840,-222.91C1840,-214.65 1840,-205.86 1840,-197.3"/>
<polygon fill="black" stroke="black" points="1843.5,-197.02 1840,-187.02 1836.5,-197.02 1843.5,-197.02"/>
</g>
<!-- 28 -->
<g id="node29" class="node">
<title>28</title>
<path fill="#e99355" stroke="black" d="M2117.5,-187C2117.5,-187 2010.5,-187 2010.5,-187 2004.5,-187 1998.5,-181 1998.5,-175 1998.5,-175 1998.5,-116 1998.5,-116 1998.5,-110 2004.5,-104 2010.5,-104 2010.5,-104 2117.5,-104 2117.5,-104 2123.5,-104 2129.5,-110 2129.5,-116 2129.5,-116 2129.5,-175 2129.5,-175 2129.5,-181 2123.5,-187 2117.5,-187"/>
<text text-anchor="middle" x="2064" y="-171.8" font-family="Helvetica,sans-Serif" font-size="14.00">age &lt;= 32.25</text>
<text text-anchor="middle" x="2064" y="-156.8" font-family="Helvetica,sans-Serif" font-size="14.00">gini = 0.218</text>
<text text-anchor="middle" x="2064" y="-141.8" font-family="Helvetica,sans-Serif" font-size="14.00">samples = 553</text>
<text text-anchor="middle" x="2064" y="-126.8" font-family="Helvetica,sans-Serif" font-size="14.00">value = [484, 69]</text>
<text text-anchor="middle" x="2064" y="-111.8" font-family="Helvetica,sans-Serif" font-size="14.00">class = Unsurvived</text>
</g>
<!-- 24&#45;&gt;28 -->
<g id="edge28" class="edge">
<title>24&#45;&gt;28</title>
<path fill="none" stroke="black" d="M1905.69,-229.19C1931.91,-215.5 1962.23,-199.66 1989.27,-185.53"/>
<polygon fill="black" stroke="black" points="1991.06,-188.54 1998.31,-180.81 1987.82,-182.34 1991.06,-188.54"/>
</g>
<!-- 26 -->
<g id="node27" class="node">
<title>26</title>
<path fill="#f3c7a7" stroke="black" d="M1819.5,-68C1819.5,-68 1712.5,-68 1712.5,-68 1706.5,-68 1700.5,-62 1700.5,-56 1700.5,-56 1700.5,-12 1700.5,-12 1700.5,-6 1706.5,0 1712.5,0 1712.5,0 1819.5,0 1819.5,0 1825.5,0 1831.5,-6 1831.5,-12 1831.5,-12 1831.5,-56 1831.5,-56 1831.5,-62 1825.5,-68 1819.5,-68"/>
<text text-anchor="middle" x="1766" y="-52.8" font-family="Helvetica,sans-Serif" font-size="14.00">gini = 0.459</text>
<text text-anchor="middle" x="1766" y="-37.8" font-family="Helvetica,sans-Serif" font-size="14.00">samples = 129</text>
<text text-anchor="middle" x="1766" y="-22.8" font-family="Helvetica,sans-Serif" font-size="14.00">value = [83, 46]</text>
<text text-anchor="middle" x="1766" y="-7.8" font-family="Helvetica,sans-Serif" font-size="14.00">class = Unsurvived</text>
</g>
<!-- 25&#45;&gt;26 -->
<g id="edge26" class="edge">
<title>25&#45;&gt;26</title>
<path fill="none" stroke="black" d="M1812.45,-103.73C1806.47,-94.88 1800.13,-85.51 1794.13,-76.63"/>
<polygon fill="black" stroke="black" points="1797,-74.63 1788.5,-68.3 1791.2,-78.54 1797,-74.63"/>
</g>
<!-- 27 -->
<g id="node28" class="node">
<title>27</title>
<path fill="#e89153" stroke="black" d="M1968.5,-68C1968.5,-68 1861.5,-68 1861.5,-68 1855.5,-68 1849.5,-62 1849.5,-56 1849.5,-56 1849.5,-12 1849.5,-12 1849.5,-6 1855.5,0 1861.5,0 1861.5,0 1968.5,0 1968.5,0 1974.5,0 1980.5,-6 1980.5,-12 1980.5,-12 1980.5,-56 1980.5,-56 1980.5,-62 1974.5,-68 1968.5,-68"/>
<text text-anchor="middle" x="1915" y="-52.8" font-family="Helvetica,sans-Serif" font-size="14.00">gini = 0.204</text>
<text text-anchor="middle" x="1915" y="-37.8" font-family="Helvetica,sans-Serif" font-size="14.00">samples = 26</text>
<text text-anchor="middle" x="1915" y="-22.8" font-family="Helvetica,sans-Serif" font-size="14.00">value = [23, 3]</text>
<text text-anchor="middle" x="1915" y="-7.8" font-family="Helvetica,sans-Serif" font-size="14.00">class = Unsurvived</text>
</g>
<!-- 25&#45;&gt;27 -->
<g id="edge27" class="edge">
<title>25&#45;&gt;27</title>
<path fill="none" stroke="black" d="M1867.93,-103.73C1873.99,-94.88 1880.4,-85.51 1886.49,-76.63"/>
<polygon fill="black" stroke="black" points="1889.43,-78.53 1892.19,-68.3 1883.65,-74.57 1889.43,-78.53"/>
</g>
<!-- 29 -->
<g id="node30" class="node">
<title>29</title>
<path fill="#e9965a" stroke="black" d="M2117.5,-68C2117.5,-68 2010.5,-68 2010.5,-68 2004.5,-68 1998.5,-62 1998.5,-56 1998.5,-56 1998.5,-12 1998.5,-12 1998.5,-6 2004.5,0 2010.5,0 2010.5,0 2117.5,0 2117.5,0 2123.5,0 2129.5,-6 2129.5,-12 2129.5,-12 2129.5,-56 2129.5,-56 2129.5,-62 2123.5,-68 2117.5,-68"/>
<text text-anchor="middle" x="2064" y="-52.8" font-family="Helvetica,sans-Serif" font-size="14.00">gini = 0.244</text>
<text text-anchor="middle" x="2064" y="-37.8" font-family="Helvetica,sans-Serif" font-size="14.00">samples = 428</text>
<text text-anchor="middle" x="2064" y="-22.8" font-family="Helvetica,sans-Serif" font-size="14.00">value = [367, 61]</text>
<text text-anchor="middle" x="2064" y="-7.8" font-family="Helvetica,sans-Serif" font-size="14.00">class = Unsurvived</text>
</g>
<!-- 28&#45;&gt;29 -->
<g id="edge29" class="edge">
<title>28&#45;&gt;29</title>
<path fill="none" stroke="black" d="M2064,-103.73C2064,-95.52 2064,-86.86 2064,-78.56"/>
<polygon fill="black" stroke="black" points="2067.5,-78.3 2064,-68.3 2060.5,-78.3 2067.5,-78.3"/>
</g>
<!-- 30 -->
<g id="node31" class="node">
<title>30</title>
<path fill="#e78a47" stroke="black" d="M2266.5,-68C2266.5,-68 2159.5,-68 2159.5,-68 2153.5,-68 2147.5,-62 2147.5,-56 2147.5,-56 2147.5,-12 2147.5,-12 2147.5,-6 2153.5,0 2159.5,0 2159.5,0 2266.5,0 2266.5,0 2272.5,0 2278.5,-6 2278.5,-12 2278.5,-12 2278.5,-56 2278.5,-56 2278.5,-62 2272.5,-68 2266.5,-68"/>
<text text-anchor="middle" x="2213" y="-52.8" font-family="Helvetica,sans-Serif" font-size="14.00">gini = 0.12</text>
<text text-anchor="middle" x="2213" y="-37.8" font-family="Helvetica,sans-Serif" font-size="14.00">samples = 125</text>
<text text-anchor="middle" x="2213" y="-22.8" font-family="Helvetica,sans-Serif" font-size="14.00">value = [117, 8]</text>
<text text-anchor="middle" x="2213" y="-7.8" font-family="Helvetica,sans-Serif" font-size="14.00">class = Unsurvived</text>
</g>
<!-- 28&#45;&gt;30 -->
<g id="edge30" class="edge">
<title>28&#45;&gt;30</title>
<path fill="none" stroke="black" d="M2119.48,-103.73C2132.51,-94.15 2146.38,-83.96 2159.33,-74.44"/>
<polygon fill="black" stroke="black" points="2161.7,-77.04 2167.69,-68.3 2157.56,-71.4 2161.7,-77.04"/>
</g>
</g>
</svg>
