<?xml version="1.0" encoding="UTF-8" standalone="no"?>
<!DOCTYPE svg PUBLIC "-//W3C//DTD SVG 1.1//EN"
 "http://www.w3.org/Graphics/SVG/1.1/DTD/svg11.dtd">
<!-- Generated by graphviz version 2.44.1 (20200629.0846)
 -->
<!-- Title: Tree Pages: 1 -->
<svg width="856pt" height="671pt"
 viewBox="0.00 0.00 856.00 671.00" xmlns="http://www.w3.org/2000/svg" xmlns:xlink="http://www.w3.org/1999/xlink">
<g id="graph0" class="graph" transform="scale(1 1) rotate(0) translate(4 667)">
<title>Tree</title>
<polygon fill="white" stroke="transparent" points="-4,4 -4,-667 852,-667 852,4 -4,4"/>
<!-- 0 -->
<g id="node1" class="node">
<title>0</title>
<path fill="#ffffff" stroke="black" d="M517,-663C517,-663 382,-663 382,-663 376,-663 370,-657 370,-651 370,-651 370,-592 370,-592 370,-586 376,-580 382,-580 382,-580 517,-580 517,-580 523,-580 529,-586 529,-592 529,-592 529,-651 529,-651 529,-657 523,-663 517,-663"/>
<text text-anchor="start" x="378" y="-647.8" font-family="Helvetica,sans-Serif" font-size="14.00">petal length (cm) ≤ 2.45</text>
<text text-anchor="start" x="414" y="-632.8" font-family="Helvetica,sans-Serif" font-size="14.00">gini = 0.667</text>
<text text-anchor="start" x="404.5" y="-617.8" font-family="Helvetica,sans-Serif" font-size="14.00">samples = 150</text>
<text text-anchor="start" x="391.5" y="-602.8" font-family="Helvetica,sans-Serif" font-size="14.00">value = [50, 50, 50]</text>
<text text-anchor="start" x="406" y="-587.8" font-family="Helvetica,sans-Serif" font-size="14.00">class = setosa</text>
</g>
<!-- 1 -->
<g id="node2" class="node">
<title>1</title>
<path fill="#e58139" stroke="black" d="M419,-536.5C419,-536.5 326,-536.5 326,-536.5 320,-536.5 314,-530.5 314,-524.5 314,-524.5 314,-480.5 314,-480.5 314,-474.5 320,-468.5 326,-468.5 326,-468.5 419,-468.5 419,-468.5 425,-468.5 431,-474.5 431,-480.5 431,-480.5 431,-524.5 431,-524.5 431,-530.5 425,-536.5 419,-536.5"/>
<text text-anchor="start" x="344.5" y="-521.3" font-family="Helvetica,sans-Serif" font-size="14.00">gini = 0.0</text>
<text text-anchor="start" x="331.5" y="-506.3" font-family="Helvetica,sans-Serif" font-size="14.00">samples = 50</text>
<text text-anchor="start" x="322" y="-491.3" font-family="Helvetica,sans-Serif" font-size="14.00">value = [50, 0, 0]</text>
<text text-anchor="start" x="329" y="-476.3" font-family="Helvetica,sans-Serif" font-size="14.00">class = setosa</text>
</g>
<!-- 0&#45;&gt;1 -->
<g id="edge1" class="edge">
<title>0&#45;&gt;1</title>
<path fill="none" stroke="black" d="M422.79,-579.91C415.38,-568.65 407.33,-556.42 399.88,-545.11"/>
<polygon fill="black" stroke="black" points="402.75,-543.1 394.33,-536.67 396.9,-546.94 402.75,-543.1"/>
<text text-anchor="middle" x="389.28" y="-557.45" font-family="Helvetica,sans-Serif" font-size="14.00">True</text>
</g>
<!-- 2 -->
<g id="node3" class="node">
<title>2</title>
<path fill="#ffffff" stroke="black" d="M591.5,-544C591.5,-544 461.5,-544 461.5,-544 455.5,-544 449.5,-538 449.5,-532 449.5,-532 449.5,-473 449.5,-473 449.5,-467 455.5,-461 461.5,-461 461.5,-461 591.5,-461 591.5,-461 597.5,-461 603.5,-467 603.5,-473 603.5,-473 603.5,-532 603.5,-532 603.5,-538 597.5,-544 591.5,-544"/>
<text text-anchor="start" x="457.5" y="-528.8" font-family="Helvetica,sans-Serif" font-size="14.00">petal width (cm) ≤ 1.75</text>
<text text-anchor="start" x="498.5" y="-513.8" font-family="Helvetica,sans-Serif" font-size="14.00">gini = 0.5</text>
<text text-anchor="start" x="481.5" y="-498.8" font-family="Helvetica,sans-Serif" font-size="14.00">samples = 100</text>
<text text-anchor="start" x="472" y="-483.8" font-family="Helvetica,sans-Serif" font-size="14.00">value = [0, 50, 50]</text>
<text text-anchor="start" x="474" y="-468.8" font-family="Helvetica,sans-Serif" font-size="14.00">class = versicolor</text>
</g>
<!-- 0&#45;&gt;2 -->
<g id="edge2" class="edge">
<title>0&#45;&gt;2</title>
<path fill="none" stroke="black" d="M476.21,-579.91C482.01,-571.1 488.2,-561.7 494.18,-552.61"/>
<polygon fill="black" stroke="black" points="497.26,-554.3 499.83,-544.02 491.41,-550.45 497.26,-554.3"/>
<text text-anchor="middle" x="504.88" y="-564.81" font-family="Helvetica,sans-Serif" font-size="14.00">False</text>
</g>
<!-- 3 -->
<g id="node4" class="node">
<title>3</title>
<path fill="#4de88e" stroke="black" d="M482,-425C482,-425 347,-425 347,-425 341,-425 335,-419 335,-413 335,-413 335,-354 335,-354 335,-348 341,-342 347,-342 347,-342 482,-342 482,-342 488,-342 494,-348 494,-354 494,-354 494,-413 494,-413 494,-419 488,-425 482,-425"/>
<text text-anchor="start" x="343" y="-409.8" font-family="Helvetica,sans-Serif" font-size="14.00">petal length (cm) ≤ 4.95</text>
<text text-anchor="start" x="379" y="-394.8" font-family="Helvetica,sans-Serif" font-size="14.00">gini = 0.168</text>
<text text-anchor="start" x="373.5" y="-379.8" font-family="Helvetica,sans-Serif" font-size="14.00">samples = 54</text>
<text text-anchor="start" x="364" y="-364.8" font-family="Helvetica,sans-Serif" font-size="14.00">value = [0, 49, 5]</text>
<text text-anchor="start" x="362" y="-349.8" font-family="Helvetica,sans-Serif" font-size="14.00">class = versicolor</text>
</g>
<!-- 2&#45;&gt;3 -->
<g id="edge3" class="edge">
<title>2&#45;&gt;3</title>
<path fill="none" stroke="black" d="M487.64,-460.91C478.87,-451.74 469.47,-441.93 460.44,-432.49"/>
<polygon fill="black" stroke="black" points="462.73,-429.82 453.29,-425.02 457.68,-434.66 462.73,-429.82"/>
</g>
<!-- 12 -->
<g id="node13" class="node">
<title>12</title>
<path fill="#843de6" stroke="black" d="M706,-425C706,-425 571,-425 571,-425 565,-425 559,-419 559,-413 559,-413 559,-354 559,-354 559,-348 565,-342 571,-342 571,-342 706,-342 706,-342 712,-342 718,-348 718,-354 718,-354 718,-413 718,-413 718,-419 712,-425 706,-425"/>
<text text-anchor="start" x="567" y="-409.8" font-family="Helvetica,sans-Serif" font-size="14.00">petal length (cm) ≤ 4.85</text>
<text text-anchor="start" x="603" y="-394.8" font-family="Helvetica,sans-Serif" font-size="14.00">gini = 0.043</text>
<text text-anchor="start" x="597.5" y="-379.8" font-family="Helvetica,sans-Serif" font-size="14.00">samples = 46</text>
<text text-anchor="start" x="588" y="-364.8" font-family="Helvetica,sans-Serif" font-size="14.00">value = [0, 1, 45]</text>
<text text-anchor="start" x="590" y="-349.8" font-family="Helvetica,sans-Serif" font-size="14.00">class = virginica</text>
</g>
<!-- 2&#45;&gt;12 -->
<g id="edge12" class="edge">
<title>2&#45;&gt;12</title>
<path fill="none" stroke="black" d="M565.36,-460.91C574.13,-451.74 583.53,-441.93 592.56,-432.49"/>
<polygon fill="black" stroke="black" points="595.32,-434.66 599.71,-425.02 590.27,-429.82 595.32,-434.66"/>
</g>
<!-- 4 -->
<g id="node5" class="node">
<title>4</title>
<path fill="#3de684" stroke="black" d="M260.5,-306C260.5,-306 130.5,-306 130.5,-306 124.5,-306 118.5,-300 118.5,-294 118.5,-294 118.5,-235 118.5,-235 118.5,-229 124.5,-223 130.5,-223 130.5,-223 260.5,-223 260.5,-223 266.5,-223 272.5,-229 272.5,-235 272.5,-235 272.5,-294 272.5,-294 272.5,-300 266.5,-306 260.5,-306"/>
<text text-anchor="start" x="126.5" y="-290.8" font-family="Helvetica,sans-Serif" font-size="14.00">petal width (cm) ≤ 1.65</text>
<text text-anchor="start" x="160" y="-275.8" font-family="Helvetica,sans-Serif" font-size="14.00">gini = 0.041</text>
<text text-anchor="start" x="154.5" y="-260.8" font-family="Helvetica,sans-Serif" font-size="14.00">samples = 48</text>
<text text-anchor="start" x="145" y="-245.8" font-family="Helvetica,sans-Serif" font-size="14.00">value = [0, 47, 1]</text>
<text text-anchor="start" x="143" y="-230.8" font-family="Helvetica,sans-Serif" font-size="14.00">class = versicolor</text>
</g>
<!-- 3&#45;&gt;4 -->
<g id="edge4" class="edge">
<title>3&#45;&gt;4</title>
<path fill="none" stroke="black" d="M338.52,-341.91C319.75,-331.88 299.52,-321.07 280.36,-310.84"/>
<polygon fill="black" stroke="black" points="281.82,-307.65 271.35,-306.02 278.52,-313.82 281.82,-307.65"/>
</g>
<!-- 7 -->
<g id="node8" class="node">
<title>7</title>
<path fill="#c09cf2" stroke="black" d="M479.5,-306C479.5,-306 349.5,-306 349.5,-306 343.5,-306 337.5,-300 337.5,-294 337.5,-294 337.5,-235 337.5,-235 337.5,-229 343.5,-223 349.5,-223 349.5,-223 479.5,-223 479.5,-223 485.5,-223 491.5,-229 491.5,-235 491.5,-235 491.5,-294 491.5,-294 491.5,-300 485.5,-306 479.5,-306"/>
<text text-anchor="start" x="345.5" y="-290.8" font-family="Helvetica,sans-Serif" font-size="14.00">petal width (cm) ≤ 1.55</text>
<text text-anchor="start" x="379" y="-275.8" font-family="Helvetica,sans-Serif" font-size="14.00">gini = 0.444</text>
<text text-anchor="start" x="377" y="-260.8" font-family="Helvetica,sans-Serif" font-size="14.00">samples = 6</text>
<text text-anchor="start" x="367.5" y="-245.8" font-family="Helvetica,sans-Serif" font-size="14.00">value = [0, 2, 4]</text>
<text text-anchor="start" x="366" y="-230.8" font-family="Helvetica,sans-Serif" font-size="14.00">class = virginica</text>
</g>
<!-- 3&#45;&gt;7 -->
<g id="edge7" class="edge">
<title>3&#45;&gt;7</title>
<path fill="none" stroke="black" d="M414.5,-341.91C414.5,-333.65 414.5,-324.86 414.5,-316.3"/>
<polygon fill="black" stroke="black" points="418,-316.02 414.5,-306.02 411,-316.02 418,-316.02"/>
</g>
<!-- 5 -->
<g id="node6" class="node">
<title>5</title>
<path fill="#39e581" stroke="black" d="M109,-179.5C109,-179.5 12,-179.5 12,-179.5 6,-179.5 0,-173.5 0,-167.5 0,-167.5 0,-123.5 0,-123.5 0,-117.5 6,-111.5 12,-111.5 12,-111.5 109,-111.5 109,-111.5 115,-111.5 121,-117.5 121,-123.5 121,-123.5 121,-167.5 121,-167.5 121,-173.5 115,-179.5 109,-179.5"/>
<text text-anchor="start" x="32.5" y="-164.3" font-family="Helvetica,sans-Serif" font-size="14.00">gini = 0.0</text>
<text text-anchor="start" x="19.5" y="-149.3" font-family="Helvetica,sans-Serif" font-size="14.00">samples = 47</text>
<text text-anchor="start" x="10" y="-134.3" font-family="Helvetica,sans-Serif" font-size="14.00">value = [0, 47, 0]</text>
<text text-anchor="start" x="8" y="-119.3" font-family="Helvetica,sans-Serif" font-size="14.00">class = versicolor</text>
</g>
<!-- 4&#45;&gt;5 -->
<g id="edge5" class="edge">
<title>4&#45;&gt;5</title>
<path fill="none" stroke="black" d="M148.66,-222.91C135.04,-211.1 120.17,-198.22 106.6,-186.45"/>
<polygon fill="black" stroke="black" points="108.62,-183.57 98.77,-179.67 104.03,-188.86 108.62,-183.57"/>
</g>
<!-- 6 -->
<g id="node7" class="node">
<title>6</title>
<path fill="#8139e5" stroke="black" d="M240,-179.5C240,-179.5 151,-179.5 151,-179.5 145,-179.5 139,-173.5 139,-167.5 139,-167.5 139,-123.5 139,-123.5 139,-117.5 145,-111.5 151,-111.5 151,-111.5 240,-111.5 240,-111.5 246,-111.5 252,-117.5 252,-123.5 252,-123.5 252,-167.5 252,-167.5 252,-173.5 246,-179.5 240,-179.5"/>
<text text-anchor="start" x="167.5" y="-164.3" font-family="Helvetica,sans-Serif" font-size="14.00">gini = 0.0</text>
<text text-anchor="start" x="158" y="-149.3" font-family="Helvetica,sans-Serif" font-size="14.00">samples = 1</text>
<text text-anchor="start" x="148.5" y="-134.3" font-family="Helvetica,sans-Serif" font-size="14.00">value = [0, 0, 1]</text>
<text text-anchor="start" x="147" y="-119.3" font-family="Helvetica,sans-Serif" font-size="14.00">class = virginica</text>
</g>
<!-- 4&#45;&gt;6 -->
<g id="edge6" class="edge">
<title>4&#45;&gt;6</title>
<path fill="none" stroke="black" d="M195.5,-222.91C195.5,-212.2 195.5,-200.62 195.5,-189.78"/>
<polygon fill="black" stroke="black" points="199,-189.67 195.5,-179.67 192,-189.67 199,-189.67"/>
</g>
<!-- 8 -->
<g id="node9" class="node">
<title>8</title>
<path fill="#8139e5" stroke="black" d="M371,-179.5C371,-179.5 282,-179.5 282,-179.5 276,-179.5 270,-173.5 270,-167.5 270,-167.5 270,-123.5 270,-123.5 270,-117.5 276,-111.5 282,-111.5 282,-111.5 371,-111.5 371,-111.5 377,-111.5 383,-117.5 383,-123.5 383,-123.5 383,-167.5 383,-167.5 383,-173.5 377,-179.5 371,-179.5"/>
<text text-anchor="start" x="298.5" y="-164.3" font-family="Helvetica,sans-Serif" font-size="14.00">gini = 0.0</text>
<text text-anchor="start" x="289" y="-149.3" font-family="Helvetica,sans-Serif" font-size="14.00">samples = 3</text>
<text text-anchor="start" x="279.5" y="-134.3" font-family="Helvetica,sans-Serif" font-size="14.00">value = [0, 0, 3]</text>
<text text-anchor="start" x="278" y="-119.3" font-family="Helvetica,sans-Serif" font-size="14.00">class = virginica</text>
</g>
<!-- 7&#45;&gt;8 -->
<g id="edge8" class="edge">
<title>7&#45;&gt;8</title>
<path fill="none" stroke="black" d="M383.97,-222.91C375.42,-211.54 366.12,-199.18 357.54,-187.77"/>
<polygon fill="black" stroke="black" points="360.25,-185.55 351.45,-179.67 354.66,-189.76 360.25,-185.55"/>
</g>
<!-- 9 -->
<g id="node10" class="node">
<title>9</title>
<path fill="#9cf2c0" stroke="black" d="M551.5,-187C551.5,-187 413.5,-187 413.5,-187 407.5,-187 401.5,-181 401.5,-175 401.5,-175 401.5,-116 401.5,-116 401.5,-110 407.5,-104 413.5,-104 413.5,-104 551.5,-104 551.5,-104 557.5,-104 563.5,-110 563.5,-116 563.5,-116 563.5,-175 563.5,-175 563.5,-181 557.5,-187 551.5,-187"/>
<text text-anchor="start" x="409.5" y="-171.8" font-family="Helvetica,sans-Serif" font-size="14.00">sepal length (cm) ≤ 6.95</text>
<text text-anchor="start" x="447" y="-156.8" font-family="Helvetica,sans-Serif" font-size="14.00">gini = 0.444</text>
<text text-anchor="start" x="445" y="-141.8" font-family="Helvetica,sans-Serif" font-size="14.00">samples = 3</text>
<text text-anchor="start" x="435.5" y="-126.8" font-family="Helvetica,sans-Serif" font-size="14.00">value = [0, 2, 1]</text>
<text text-anchor="start" x="430" y="-111.8" font-family="Helvetica,sans-Serif" font-size="14.00">class = versicolor</text>
</g>
<!-- 7&#45;&gt;9 -->
<g id="edge9" class="edge">
<title>7&#45;&gt;9</title>
<path fill="none" stroke="black" d="M438.09,-222.91C443.16,-214.2 448.56,-204.9 453.79,-195.89"/>
<polygon fill="black" stroke="black" points="456.95,-197.43 458.95,-187.02 450.9,-193.91 456.95,-197.43"/>
</g>
<!-- 10 -->
<g id="node11" class="node">
<title>10</title>
<path fill="#39e581" stroke="black" d="M463,-68C463,-68 366,-68 366,-68 360,-68 354,-62 354,-56 354,-56 354,-12 354,-12 354,-6 360,0 366,0 366,0 463,0 463,0 469,0 475,-6 475,-12 475,-12 475,-56 475,-56 475,-62 469,-68 463,-68"/>
<text text-anchor="start" x="386.5" y="-52.8" font-family="Helvetica,sans-Serif" font-size="14.00">gini = 0.0</text>
<text text-anchor="start" x="377" y="-37.8" font-family="Helvetica,sans-Serif" font-size="14.00">samples = 2</text>
<text text-anchor="start" x="367.5" y="-22.8" font-family="Helvetica,sans-Serif" font-size="14.00">value = [0, 2, 0]</text>
<text text-anchor="start" x="362" y="-7.8" font-family="Helvetica,sans-Serif" font-size="14.00">class = versicolor</text>
</g>
<!-- 9&#45;&gt;10 -->
<g id="edge10" class="edge">
<title>9&#45;&gt;10</title>
<path fill="none" stroke="black" d="M457.18,-103.73C451.74,-94.97 445.99,-85.7 440.52,-76.91"/>
<polygon fill="black" stroke="black" points="443.43,-74.95 435.18,-68.3 437.48,-78.64 443.43,-74.95"/>
</g>
<!-- 11 -->
<g id="node12" class="node">
<title>11</title>
<path fill="#8139e5" stroke="black" d="M594,-68C594,-68 505,-68 505,-68 499,-68 493,-62 493,-56 493,-56 493,-12 493,-12 493,-6 499,0 505,0 505,0 594,0 594,0 600,0 606,-6 606,-12 606,-12 606,-56 606,-56 606,-62 600,-68 594,-68"/>
<text text-anchor="start" x="521.5" y="-52.8" font-family="Helvetica,sans-Serif" font-size="14.00">gini = 0.0</text>
<text text-anchor="start" x="512" y="-37.8" font-family="Helvetica,sans-Serif" font-size="14.00">samples = 1</text>
<text text-anchor="start" x="502.5" y="-22.8" font-family="Helvetica,sans-Serif" font-size="14.00">value = [0, 0, 1]</text>
<text text-anchor="start" x="501" y="-7.8" font-family="Helvetica,sans-Serif" font-size="14.00">class = virginica</text>
</g>
<!-- 9&#45;&gt;11 -->
<g id="edge11" class="edge">
<title>9&#45;&gt;11</title>
<path fill="none" stroke="black" d="M507.45,-103.73C512.81,-94.97 518.48,-85.7 523.86,-76.91"/>
<polygon fill="black" stroke="black" points="526.89,-78.66 529.12,-68.3 520.92,-75 526.89,-78.66"/>
</g>
<!-- 13 -->
<g id="node14" class="node">
<title>13</title>
<path fill="#c09cf2" stroke="black" d="M701,-306C701,-306 576,-306 576,-306 570,-306 564,-300 564,-294 564,-294 564,-235 564,-235 564,-229 570,-223 576,-223 576,-223 701,-223 701,-223 707,-223 713,-229 713,-235 713,-235 713,-294 713,-294 713,-300 707,-306 701,-306"/>
<text text-anchor="start" x="572" y="-290.8" font-family="Helvetica,sans-Serif" font-size="14.00">sepal width (cm) ≤ 3.1</text>
<text text-anchor="start" x="603" y="-275.8" font-family="Helvetica,sans-Serif" font-size="14.00">gini = 0.444</text>
<text text-anchor="start" x="601" y="-260.8" font-family="Helvetica,sans-Serif" font-size="14.00">samples = 3</text>
<text text-anchor="start" x="591.5" y="-245.8" font-family="Helvetica,sans-Serif" font-size="14.00">value = [0, 1, 2]</text>
<text text-anchor="start" x="590" y="-230.8" font-family="Helvetica,sans-Serif" font-size="14.00">class = virginica</text>
</g>
<!-- 12&#45;&gt;13 -->
<g id="edge13" class="edge">
<title>12&#45;&gt;13</title>
<path fill="none" stroke="black" d="M638.5,-341.91C638.5,-333.65 638.5,-324.86 638.5,-316.3"/>
<polygon fill="black" stroke="black" points="642,-316.02 638.5,-306.02 635,-316.02 642,-316.02"/>
</g>
<!-- 16 -->
<g id="node17" class="node">
<title>16</title>
<path fill="#8139e5" stroke="black" d="M836,-298.5C836,-298.5 743,-298.5 743,-298.5 737,-298.5 731,-292.5 731,-286.5 731,-286.5 731,-242.5 731,-242.5 731,-236.5 737,-230.5 743,-230.5 743,-230.5 836,-230.5 836,-230.5 842,-230.5 848,-236.5 848,-242.5 848,-242.5 848,-286.5 848,-286.5 848,-292.5 842,-298.5 836,-298.5"/>
<text text-anchor="start" x="761.5" y="-283.3" font-family="Helvetica,sans-Serif" font-size="14.00">gini = 0.0</text>
<text text-anchor="start" x="748.5" y="-268.3" font-family="Helvetica,sans-Serif" font-size="14.00">samples = 43</text>
<text text-anchor="start" x="739" y="-253.3" font-family="Helvetica,sans-Serif" font-size="14.00">value = [0, 0, 43]</text>
<text text-anchor="start" x="741" y="-238.3" font-family="Helvetica,sans-Serif" font-size="14.00">class = virginica</text>
</g>
<!-- 12&#45;&gt;16 -->
<g id="edge16" class="edge">
<title>12&#45;&gt;16</title>
<path fill="none" stroke="black" d="M690.89,-341.91C706.27,-329.99 723.07,-316.98 738.37,-305.12"/>
<polygon fill="black" stroke="black" points="740.93,-307.56 746.69,-298.67 736.65,-302.03 740.93,-307.56"/>
</g>
<!-- 14 -->
<g id="node15" class="node">
<title>14</title>
<path fill="#8139e5" stroke="black" d="M683,-179.5C683,-179.5 594,-179.5 594,-179.5 588,-179.5 582,-173.5 582,-167.5 582,-167.5 582,-123.5 582,-123.5 582,-117.5 588,-111.5 594,-111.5 594,-111.5 683,-111.5 683,-111.5 689,-111.5 695,-117.5 695,-123.5 695,-123.5 695,-167.5 695,-167.5 695,-173.5 689,-179.5 683,-179.5"/>
<text text-anchor="start" x="610.5" y="-164.3" font-family="Helvetica,sans-Serif" font-size="14.00">gini = 0.0</text>
<text text-anchor="start" x="601" y="-149.3" font-family="Helvetica,sans-Serif" font-size="14.00">samples = 2</text>
<text text-anchor="start" x="591.5" y="-134.3" font-family="Helvetica,sans-Serif" font-size="14.00">value = [0, 0, 2]</text>
<text text-anchor="start" x="590" y="-119.3" font-family="Helvetica,sans-Serif" font-size="14.00">class = virginica</text>
</g>
<!-- 13&#45;&gt;14 -->
<g id="edge14" class="edge">
<title>13&#45;&gt;14</title>
<path fill="none" stroke="black" d="M638.5,-222.91C638.5,-212.2 638.5,-200.62 638.5,-189.78"/>
<polygon fill="black" stroke="black" points="642,-189.67 638.5,-179.67 635,-189.67 642,-189.67"/>
</g>
<!-- 15 -->
<g id="node16" class="node">
<title>15</title>
<path fill="#39e581" stroke="black" d="M822,-179.5C822,-179.5 725,-179.5 725,-179.5 719,-179.5 713,-173.5 713,-167.5 713,-167.5 713,-123.5 713,-123.5 713,-117.5 719,-111.5 725,-111.5 725,-111.5 822,-111.5 822,-111.5 828,-111.5 834,-117.5 834,-123.5 834,-123.5 834,-167.5 834,-167.5 834,-173.5 828,-179.5 822,-179.5"/>
<text text-anchor="start" x="745.5" y="-164.3" font-family="Helvetica,sans-Serif" font-size="14.00">gini = 0.0</text>
<text text-anchor="start" x="736" y="-149.3" font-family="Helvetica,sans-Serif" font-size="14.00">samples = 1</text>
<text text-anchor="start" x="726.5" y="-134.3" font-family="Helvetica,sans-Serif" font-size="14.00">value = [0, 1, 0]</text>
<text text-anchor="start" x="721" y="-119.3" font-family="Helvetica,sans-Serif" font-size="14.00">class = versicolor</text>
</g>
<!-- 13&#45;&gt;15 -->
<g id="edge15" class="edge">
<title>13&#45;&gt;15</title>
<path fill="none" stroke="black" d="M685.34,-222.91C698.96,-211.1 713.83,-198.22 727.4,-186.45"/>
<polygon fill="black" stroke="black" points="729.97,-188.86 735.23,-179.67 725.38,-183.57 729.97,-188.86"/>
</g>
</g>
</svg>
