<?xml version="1.0" encoding="UTF-8" standalone="no"?>
<!DOCTYPE svg PUBLIC "-//W3C//DTD SVG 1.1//EN"
 "http://www.w3.org/Graphics/SVG/1.1/DTD/svg11.dtd">
<!-- Generated by graphviz version 2.44.1 (20200629.0846)
 -->
<!-- Title: Tree Pages: 1 -->
<svg width="852pt" height="671pt"
 viewBox="0.00 0.00 852.00 671.00" xmlns="http://www.w3.org/2000/svg" xmlns:xlink="http://www.w3.org/1999/xlink">
<g id="graph0" class="graph" transform="scale(1 1) rotate(0) translate(4 667)">
<title>Tree</title>
<polygon fill="white" stroke="transparent" points="-4,4 -4,-667 848,-667 848,4 -4,4"/>
<!-- 0 -->
<g id="node1" class="node">
<title>0</title>
<path fill="#ffffff" stroke="black" d="M514,-663C514,-663 379,-663 379,-663 373,-663 367,-657 367,-651 367,-651 367,-592 367,-592 367,-586 373,-580 379,-580 379,-580 514,-580 514,-580 520,-580 526,-586 526,-592 526,-592 526,-651 526,-651 526,-657 520,-663 514,-663"/>
<text text-anchor="start" x="375" y="-647.8" font-family="Helvetica,sans-Serif" font-size="14.00">petal length (cm) ≤ 2.45</text>
<text text-anchor="start" x="411" y="-632.8" font-family="Helvetica,sans-Serif" font-size="14.00">gini = 0.667</text>
<text text-anchor="start" x="401.5" y="-617.8" font-family="Helvetica,sans-Serif" font-size="14.00">samples = 150</text>
<text text-anchor="start" x="388.5" y="-602.8" font-family="Helvetica,sans-Serif" font-size="14.00">value = [50, 50, 50]</text>
<text text-anchor="start" x="403" y="-587.8" font-family="Helvetica,sans-Serif" font-size="14.00">class = setosa</text>
</g>
<!-- 1 -->
<g id="node2" class="node">
<title>1</title>
<path fill="#e58139" stroke="black" d="M416,-536.5C416,-536.5 323,-536.5 323,-536.5 317,-536.5 311,-530.5 311,-524.5 311,-524.5 311,-480.5 311,-480.5 311,-474.5 317,-468.5 323,-468.5 323,-468.5 416,-468.5 416,-468.5 422,-468.5 428,-474.5 428,-480.5 428,-480.5 428,-524.5 428,-524.5 428,-530.5 422,-536.5 416,-536.5"/>
<text text-anchor="start" x="341.5" y="-521.3" font-family="Helvetica,sans-Serif" font-size="14.00">gini = 0.0</text>
<text text-anchor="start" x="328.5" y="-506.3" font-family="Helvetica,sans-Serif" font-size="14.00">samples = 50</text>
<text text-anchor="start" x="319" y="-491.3" font-family="Helvetica,sans-Serif" font-size="14.00">value = [50, 0, 0]</text>
<text text-anchor="start" x="326" y="-476.3" font-family="Helvetica,sans-Serif" font-size="14.00">class = setosa</text>
</g>
<!-- 0&#45;&gt;1 -->
<g id="edge1" class="edge">
<title>0&#45;&gt;1</title>
<path fill="none" stroke="black" d="M419.79,-579.91C412.38,-568.65 404.33,-556.42 396.88,-545.11"/>
<polygon fill="black" stroke="black" points="399.75,-543.1 391.33,-536.67 393.9,-546.94 399.75,-543.1"/>
<text text-anchor="middle" x="386.28" y="-557.45" font-family="Helvetica,sans-Serif" font-size="14.00">True</text>
</g>
<!-- 2 -->
<g id="node3" class="node">
<title>2</title>
<path fill="#ffffff" stroke="black" d="M588.5,-544C588.5,-544 458.5,-544 458.5,-544 452.5,-544 446.5,-538 446.5,-532 446.5,-532 446.5,-473 446.5,-473 446.5,-467 452.5,-461 458.5,-461 458.5,-461 588.5,-461 588.5,-461 594.5,-461 600.5,-467 600.5,-473 600.5,-473 600.5,-532 600.5,-532 600.5,-538 594.5,-544 588.5,-544"/>
<text text-anchor="start" x="454.5" y="-528.8" font-family="Helvetica,sans-Serif" font-size="14.00">petal width (cm) ≤ 1.75</text>
<text text-anchor="start" x="495.5" y="-513.8" font-family="Helvetica,sans-Serif" font-size="14.00">gini = 0.5</text>
<text text-anchor="start" x="478.5" y="-498.8" font-family="Helvetica,sans-Serif" font-size="14.00">samples = 100</text>
<text text-anchor="start" x="469" y="-483.8" font-family="Helvetica,sans-Serif" font-size="14.00">value = [0, 50, 50]</text>
<text text-anchor="start" x="471" y="-468.8" font-family="Helvetica,sans-Serif" font-size="14.00">class = versicolor</text>
</g>
<!-- 0&#45;&gt;2 -->
<g id="edge2" class="edge">
<title>0&#45;&gt;2</title>
<path fill="none" stroke="black" d="M473.21,-579.91C479.01,-571.1 485.2,-561.7 491.18,-552.61"/>
<polygon fill="black" stroke="black" points="494.26,-554.3 496.83,-544.02 488.41,-550.45 494.26,-554.3"/>
<text text-anchor="middle" x="501.88" y="-564.81" font-family="Helvetica,sans-Serif" font-size="14.00">False</text>
</g>
<!-- 3 -->
<g id="node4" class="node">
<title>3</title>
<path fill="#4de88e" stroke="black" d="M480,-425C480,-425 345,-425 345,-425 339,-425 333,-419 333,-413 333,-413 333,-354 333,-354 333,-348 339,-342 345,-342 345,-342 480,-342 480,-342 486,-342 492,-348 492,-354 492,-354 492,-413 492,-413 492,-419 486,-425 480,-425"/>
<text text-anchor="start" x="341" y="-409.8" font-family="Helvetica,sans-Serif" font-size="14.00">petal length (cm) ≤ 4.95</text>
<text text-anchor="start" x="377" y="-394.8" font-family="Helvetica,sans-Serif" font-size="14.00">gini = 0.168</text>
<text text-anchor="start" x="371.5" y="-379.8" font-family="Helvetica,sans-Serif" font-size="14.00">samples = 54</text>
<text text-anchor="start" x="362" y="-364.8" font-family="Helvetica,sans-Serif" font-size="14.00">value = [0, 49, 5]</text>
<text text-anchor="start" x="360" y="-349.8" font-family="Helvetica,sans-Serif" font-size="14.00">class = versicolor</text>
</g>
<!-- 2&#45;&gt;3 -->
<g id="edge3" class="edge">
<title>2&#45;&gt;3</title>
<path fill="none" stroke="black" d="M484.99,-460.91C476.29,-451.74 466.98,-441.93 458.03,-432.49"/>
<polygon fill="black" stroke="black" points="460.36,-429.87 450.94,-425.02 455.29,-434.68 460.36,-429.87"/>
</g>
<!-- 12 -->
<g id="node13" class="node">
<title>12</title>
<path fill="#843de6" stroke="black" d="M702,-425C702,-425 567,-425 567,-425 561,-425 555,-419 555,-413 555,-413 555,-354 555,-354 555,-348 561,-342 567,-342 567,-342 702,-342 702,-342 708,-342 714,-348 714,-354 714,-354 714,-413 714,-413 714,-419 708,-425 702,-425"/>
<text text-anchor="start" x="563" y="-409.8" font-family="Helvetica,sans-Serif" font-size="14.00">petal length (cm) ≤ 4.85</text>
<text text-anchor="start" x="599" y="-394.8" font-family="Helvetica,sans-Serif" font-size="14.00">gini = 0.043</text>
<text text-anchor="start" x="593.5" y="-379.8" font-family="Helvetica,sans-Serif" font-size="14.00">samples = 46</text>
<text text-anchor="start" x="584" y="-364.8" font-family="Helvetica,sans-Serif" font-size="14.00">value = [0, 1, 45]</text>
<text text-anchor="start" x="586" y="-349.8" font-family="Helvetica,sans-Serif" font-size="14.00">class = virginica</text>
</g>
<!-- 2&#45;&gt;12 -->
<g id="edge12" class="edge">
<title>2&#45;&gt;12</title>
<path fill="none" stroke="black" d="M562.01,-460.91C570.71,-451.74 580.02,-441.93 588.97,-432.49"/>
<polygon fill="black" stroke="black" points="591.71,-434.68 596.06,-425.02 586.64,-429.87 591.71,-434.68"/>
</g>
<!-- 4 -->
<g id="node5" class="node">
<title>4</title>
<path fill="#3de684" stroke="black" d="M260.5,-306C260.5,-306 130.5,-306 130.5,-306 124.5,-306 118.5,-300 118.5,-294 118.5,-294 118.5,-235 118.5,-235 118.5,-229 124.5,-223 130.5,-223 130.5,-223 260.5,-223 260.5,-223 266.5,-223 272.5,-229 272.5,-235 272.5,-235 272.5,-294 272.5,-294 272.5,-300 266.5,-306 260.5,-306"/>
<text text-anchor="start" x="126.5" y="-290.8" font-family="Helvetica,sans-Serif" font-size="14.00">petal width (cm) ≤ 1.65</text>
<text text-anchor="start" x="160" y="-275.8" font-family="Helvetica,sans-Serif" font-size="14.00">gini = 0.041</text>
<text text-anchor="start" x="154.5" y="-260.8" font-family="Helvetica,sans-Serif" font-size="14.00">samples = 48</text>
<text text-anchor="start" x="145" y="-245.8" font-family="Helvetica,sans-Serif" font-size="14.00">value = [0, 47, 1]</text>
<text text-anchor="start" x="143" y="-230.8" font-family="Helvetica,sans-Serif" font-size="14.00">class = versicolor</text>
</g>
<!-- 3&#45;&gt;4 -->
<g id="edge4" class="edge">
<title>3&#45;&gt;4</title>
<path fill="none" stroke="black" d="M337.21,-341.91C318.61,-331.88 298.57,-321.07 279.59,-310.84"/>
<polygon fill="black" stroke="black" points="281.12,-307.69 270.65,-306.02 277.8,-313.85 281.12,-307.69"/>
</g>
<!-- 7 -->
<g id="node8" class="node">
<title>7</title>
<path fill="#c09cf2" stroke="black" d="M477.5,-306C477.5,-306 347.5,-306 347.5,-306 341.5,-306 335.5,-300 335.5,-294 335.5,-294 335.5,-235 335.5,-235 335.5,-229 341.5,-223 347.5,-223 347.5,-223 477.5,-223 477.5,-223 483.5,-223 489.5,-229 489.5,-235 489.5,-235 489.5,-294 489.5,-294 489.5,-300 483.5,-306 477.5,-306"/>
<text text-anchor="start" x="343.5" y="-290.8" font-family="Helvetica,sans-Serif" font-size="14.00">petal width (cm) ≤ 1.55</text>
<text text-anchor="start" x="377" y="-275.8" font-family="Helvetica,sans-Serif" font-size="14.00">gini = 0.444</text>
<text text-anchor="start" x="375" y="-260.8" font-family="Helvetica,sans-Serif" font-size="14.00">samples = 6</text>
<text text-anchor="start" x="365.5" y="-245.8" font-family="Helvetica,sans-Serif" font-size="14.00">value = [0, 2, 4]</text>
<text text-anchor="start" x="364" y="-230.8" font-family="Helvetica,sans-Serif" font-size="14.00">class = virginica</text>
</g>
<!-- 3&#45;&gt;7 -->
<g id="edge7" class="edge">
<title>3&#45;&gt;7</title>
<path fill="none" stroke="black" d="M412.5,-341.91C412.5,-333.65 412.5,-324.86 412.5,-316.3"/>
<polygon fill="black" stroke="black" points="416,-316.02 412.5,-306.02 409,-316.02 416,-316.02"/>
</g>
<!-- 5 -->
<g id="node6" class="node">
<title>5</title>
<path fill="#39e581" stroke="black" d="M109,-179.5C109,-179.5 12,-179.5 12,-179.5 6,-179.5 0,-173.5 0,-167.5 0,-167.5 0,-123.5 0,-123.5 0,-117.5 6,-111.5 12,-111.5 12,-111.5 109,-111.5 109,-111.5 115,-111.5 121,-117.5 121,-123.5 121,-123.5 121,-167.5 121,-167.5 121,-173.5 115,-179.5 109,-179.5"/>
<text text-anchor="start" x="32.5" y="-164.3" font-family="Helvetica,sans-Serif" font-size="14.00">gini = 0.0</text>
<text text-anchor="start" x="19.5" y="-149.3" font-family="Helvetica,sans-Serif" font-size="14.00">samples = 47</text>
<text text-anchor="start" x="10" y="-134.3" font-family="Helvetica,sans-Serif" font-size="14.00">value = [0, 47, 0]</text>
<text text-anchor="start" x="8" y="-119.3" font-family="Helvetica,sans-Serif" font-size="14.00">class = versicolor</text>
</g>
<!-- 4&#45;&gt;5 -->
<g id="edge5" class="edge">
<title>4&#45;&gt;5</title>
<path fill="none" stroke="black" d="M148.66,-222.91C135.04,-211.1 120.17,-198.22 106.6,-186.45"/>
<polygon fill="black" stroke="black" points="108.62,-183.57 98.77,-179.67 104.03,-188.86 108.62,-183.57"/>
</g>
<!-- 6 -->
<g id="node7" class="node">
<title>6</title>
<path fill="#8139e5" stroke="black" d="M240,-179.5C240,-179.5 151,-179.5 151,-179.5 145,-179.5 139,-173.5 139,-167.5 139,-167.5 139,-123.5 139,-123.5 139,-117.5 145,-111.5 151,-111.5 151,-111.5 240,-111.5 240,-111.5 246,-111.5 252,-117.5 252,-123.5 252,-123.5 252,-167.5 252,-167.5 252,-173.5 246,-179.5 240,-179.5"/>
<text text-anchor="start" x="167.5" y="-164.3" font-family="Helvetica,sans-Serif" font-size="14.00">gini = 0.0</text>
<text text-anchor="start" x="158" y="-149.3" font-family="Helvetica,sans-Serif" font-size="14.00">samples = 1</text>
<text text-anchor="start" x="148.5" y="-134.3" font-family="Helvetica,sans-Serif" font-size="14.00">value = [0, 0, 1]</text>
<text text-anchor="start" x="147" y="-119.3" font-family="Helvetica,sans-Serif" font-size="14.00">class = virginica</text>
</g>
<!-- 4&#45;&gt;6 -->
<g id="edge6" class="edge">
<title>4&#45;&gt;6</title>
<path fill="none" stroke="black" d="M195.5,-222.91C195.5,-212.2 195.5,-200.62 195.5,-189.78"/>
<polygon fill="black" stroke="black" points="199,-189.67 195.5,-179.67 192,-189.67 199,-189.67"/>
</g>
<!-- 8 -->
<g id="node9" class="node">
<title>8</title>
<path fill="#8139e5" stroke="black" d="M371,-179.5C371,-179.5 282,-179.5 282,-179.5 276,-179.5 270,-173.5 270,-167.5 270,-167.5 270,-123.5 270,-123.5 270,-117.5 276,-111.5 282,-111.5 282,-111.5 371,-111.5 371,-111.5 377,-111.5 383,-117.5 383,-123.5 383,-123.5 383,-167.5 383,-167.5 383,-173.5 377,-179.5 371,-179.5"/>
<text text-anchor="start" x="298.5" y="-164.3" font-family="Helvetica,sans-Serif" font-size="14.00">gini = 0.0</text>
<text text-anchor="start" x="289" y="-149.3" font-family="Helvetica,sans-Serif" font-size="14.00">samples = 3</text>
<text text-anchor="start" x="279.5" y="-134.3" font-family="Helvetica,sans-Serif" font-size="14.00">value = [0, 0, 3]</text>
<text text-anchor="start" x="278" y="-119.3" font-family="Helvetica,sans-Serif" font-size="14.00">class = virginica</text>
</g>
<!-- 7&#45;&gt;8 -->
<g id="edge8" class="edge">
<title>7&#45;&gt;8</title>
<path fill="none" stroke="black" d="M382.66,-222.91C374.31,-211.54 365.22,-199.18 356.84,-187.77"/>
<polygon fill="black" stroke="black" points="359.62,-185.65 350.88,-179.67 353.98,-189.8 359.62,-185.65"/>
</g>
<!-- 9 -->
<g id="node10" class="node">
<title>9</title>
<path fill="#9cf2c0" stroke="black" d="M548,-187C548,-187 413,-187 413,-187 407,-187 401,-181 401,-175 401,-175 401,-116 401,-116 401,-110 407,-104 413,-104 413,-104 548,-104 548,-104 554,-104 560,-110 560,-116 560,-116 560,-175 560,-175 560,-181 554,-187 548,-187"/>
<text text-anchor="start" x="409" y="-171.8" font-family="Helvetica,sans-Serif" font-size="14.00">petal length (cm) ≤ 5.45</text>
<text text-anchor="start" x="445" y="-156.8" font-family="Helvetica,sans-Serif" font-size="14.00">gini = 0.444</text>
<text text-anchor="start" x="443" y="-141.8" font-family="Helvetica,sans-Serif" font-size="14.00">samples = 3</text>
<text text-anchor="start" x="433.5" y="-126.8" font-family="Helvetica,sans-Serif" font-size="14.00">value = [0, 2, 1]</text>
<text text-anchor="start" x="428" y="-111.8" font-family="Helvetica,sans-Serif" font-size="14.00">class = versicolor</text>
</g>
<!-- 7&#45;&gt;9 -->
<g id="edge9" class="edge">
<title>7&#45;&gt;9</title>
<path fill="none" stroke="black" d="M436.09,-222.91C441.16,-214.2 446.56,-204.9 451.79,-195.89"/>
<polygon fill="black" stroke="black" points="454.95,-197.43 456.95,-187.02 448.9,-193.91 454.95,-197.43"/>
</g>
<!-- 10 -->
<g id="node11" class="node">
<title>10</title>
<path fill="#39e581" stroke="black" d="M461,-68C461,-68 364,-68 364,-68 358,-68 352,-62 352,-56 352,-56 352,-12 352,-12 352,-6 358,0 364,0 364,0 461,0 461,0 467,0 473,-6 473,-12 473,-12 473,-56 473,-56 473,-62 467,-68 461,-68"/>
<text text-anchor="start" x="384.5" y="-52.8" font-family="Helvetica,sans-Serif" font-size="14.00">gini = 0.0</text>
<text text-anchor="start" x="375" y="-37.8" font-family="Helvetica,sans-Serif" font-size="14.00">samples = 2</text>
<text text-anchor="start" x="365.5" y="-22.8" font-family="Helvetica,sans-Serif" font-size="14.00">value = [0, 2, 0]</text>
<text text-anchor="start" x="360" y="-7.8" font-family="Helvetica,sans-Serif" font-size="14.00">class = versicolor</text>
</g>
<!-- 9&#45;&gt;10 -->
<g id="edge10" class="edge">
<title>9&#45;&gt;10</title>
<path fill="none" stroke="black" d="M455.18,-103.73C449.74,-94.97 443.99,-85.7 438.52,-76.91"/>
<polygon fill="black" stroke="black" points="441.43,-74.95 433.18,-68.3 435.48,-78.64 441.43,-74.95"/>
</g>
<!-- 11 -->
<g id="node12" class="node">
<title>11</title>
<path fill="#8139e5" stroke="black" d="M592,-68C592,-68 503,-68 503,-68 497,-68 491,-62 491,-56 491,-56 491,-12 491,-12 491,-6 497,0 503,0 503,0 592,0 592,0 598,0 604,-6 604,-12 604,-12 604,-56 604,-56 604,-62 598,-68 592,-68"/>
<text text-anchor="start" x="519.5" y="-52.8" font-family="Helvetica,sans-Serif" font-size="14.00">gini = 0.0</text>
<text text-anchor="start" x="510" y="-37.8" font-family="Helvetica,sans-Serif" font-size="14.00">samples = 1</text>
<text text-anchor="start" x="500.5" y="-22.8" font-family="Helvetica,sans-Serif" font-size="14.00">value = [0, 0, 1]</text>
<text text-anchor="start" x="499" y="-7.8" font-family="Helvetica,sans-Serif" font-size="14.00">class = virginica</text>
</g>
<!-- 9&#45;&gt;11 -->
<g id="edge11" class="edge">
<title>9&#45;&gt;11</title>
<path fill="none" stroke="black" d="M505.45,-103.73C510.81,-94.97 516.48,-85.7 521.86,-76.91"/>
<polygon fill="black" stroke="black" points="524.89,-78.66 527.12,-68.3 518.92,-75 524.89,-78.66"/>
</g>
<!-- 13 -->
<g id="node14" class="node">
<title>13</title>
<path fill="#c09cf2" stroke="black" d="M697,-306C697,-306 572,-306 572,-306 566,-306 560,-300 560,-294 560,-294 560,-235 560,-235 560,-229 566,-223 572,-223 572,-223 697,-223 697,-223 703,-223 709,-229 709,-235 709,-235 709,-294 709,-294 709,-300 703,-306 697,-306"/>
<text text-anchor="start" x="568" y="-290.8" font-family="Helvetica,sans-Serif" font-size="14.00">sepal width (cm) ≤ 3.1</text>
<text text-anchor="start" x="599" y="-275.8" font-family="Helvetica,sans-Serif" font-size="14.00">gini = 0.444</text>
<text text-anchor="start" x="597" y="-260.8" font-family="Helvetica,sans-Serif" font-size="14.00">samples = 3</text>
<text text-anchor="start" x="587.5" y="-245.8" font-family="Helvetica,sans-Serif" font-size="14.00">value = [0, 1, 2]</text>
<text text-anchor="start" x="586" y="-230.8" font-family="Helvetica,sans-Serif" font-size="14.00">class = virginica</text>
</g>
<!-- 12&#45;&gt;13 -->
<g id="edge13" class="edge">
<title>12&#45;&gt;13</title>
<path fill="none" stroke="black" d="M634.5,-341.91C634.5,-333.65 634.5,-324.86 634.5,-316.3"/>
<polygon fill="black" stroke="black" points="638,-316.02 634.5,-306.02 631,-316.02 638,-316.02"/>
</g>
<!-- 16 -->
<g id="node17" class="node">
<title>16</title>
<path fill="#8139e5" stroke="black" d="M832,-298.5C832,-298.5 739,-298.5 739,-298.5 733,-298.5 727,-292.5 727,-286.5 727,-286.5 727,-242.5 727,-242.5 727,-236.5 733,-230.5 739,-230.5 739,-230.5 832,-230.5 832,-230.5 838,-230.5 844,-236.5 844,-242.5 844,-242.5 844,-286.5 844,-286.5 844,-292.5 838,-298.5 832,-298.5"/>
<text text-anchor="start" x="757.5" y="-283.3" font-family="Helvetica,sans-Serif" font-size="14.00">gini = 0.0</text>
<text text-anchor="start" x="744.5" y="-268.3" font-family="Helvetica,sans-Serif" font-size="14.00">samples = 43</text>
<text text-anchor="start" x="735" y="-253.3" font-family="Helvetica,sans-Serif" font-size="14.00">value = [0, 0, 43]</text>
<text text-anchor="start" x="737" y="-238.3" font-family="Helvetica,sans-Serif" font-size="14.00">class = virginica</text>
</g>
<!-- 12&#45;&gt;16 -->
<g id="edge16" class="edge">
<title>12&#45;&gt;16</title>
<path fill="none" stroke="black" d="M686.89,-341.91C702.27,-329.99 719.07,-316.98 734.37,-305.12"/>
<polygon fill="black" stroke="black" points="736.93,-307.56 742.69,-298.67 732.65,-302.03 736.93,-307.56"/>
</g>
<!-- 14 -->
<g id="node15" class="node">
<title>14</title>
<path fill="#8139e5" stroke="black" d="M679,-179.5C679,-179.5 590,-179.5 590,-179.5 584,-179.5 578,-173.5 578,-167.5 578,-167.5 578,-123.5 578,-123.5 578,-117.5 584,-111.5 590,-111.5 590,-111.5 679,-111.5 679,-111.5 685,-111.5 691,-117.5 691,-123.5 691,-123.5 691,-167.5 691,-167.5 691,-173.5 685,-179.5 679,-179.5"/>
<text text-anchor="start" x="606.5" y="-164.3" font-family="Helvetica,sans-Serif" font-size="14.00">gini = 0.0</text>
<text text-anchor="start" x="597" y="-149.3" font-family="Helvetica,sans-Serif" font-size="14.00">samples = 2</text>
<text text-anchor="start" x="587.5" y="-134.3" font-family="Helvetica,sans-Serif" font-size="14.00">value = [0, 0, 2]</text>
<text text-anchor="start" x="586" y="-119.3" font-family="Helvetica,sans-Serif" font-size="14.00">class = virginica</text>
</g>
<!-- 13&#45;&gt;14 -->
<g id="edge14" class="edge">
<title>13&#45;&gt;14</title>
<path fill="none" stroke="black" d="M634.5,-222.91C634.5,-212.2 634.5,-200.62 634.5,-189.78"/>
<polygon fill="black" stroke="black" points="638,-189.67 634.5,-179.67 631,-189.67 638,-189.67"/>
</g>
<!-- 15 -->
<g id="node16" class="node">
<title>15</title>
<path fill="#39e581" stroke="black" d="M818,-179.5C818,-179.5 721,-179.5 721,-179.5 715,-179.5 709,-173.5 709,-167.5 709,-167.5 709,-123.5 709,-123.5 709,-117.5 715,-111.5 721,-111.5 721,-111.5 818,-111.5 818,-111.5 824,-111.5 830,-117.5 830,-123.5 830,-123.5 830,-167.5 830,-167.5 830,-173.5 824,-179.5 818,-179.5"/>
<text text-anchor="start" x="741.5" y="-164.3" font-family="Helvetica,sans-Serif" font-size="14.00">gini = 0.0</text>
<text text-anchor="start" x="732" y="-149.3" font-family="Helvetica,sans-Serif" font-size="14.00">samples = 1</text>
<text text-anchor="start" x="722.5" y="-134.3" font-family="Helvetica,sans-Serif" font-size="14.00">value = [0, 1, 0]</text>
<text text-anchor="start" x="717" y="-119.3" font-family="Helvetica,sans-Serif" font-size="14.00">class = versicolor</text>
</g>
<!-- 13&#45;&gt;15 -->
<g id="edge15" class="edge">
<title>13&#45;&gt;15</title>
<path fill="none" stroke="black" d="M681.34,-222.91C694.96,-211.1 709.83,-198.22 723.4,-186.45"/>
<polygon fill="black" stroke="black" points="725.97,-188.86 731.23,-179.67 721.38,-183.57 725.97,-188.86"/>
</g>
</g>
</svg>
