<?xml version="1.0" encoding="UTF-8" standalone="no"?>
<!DOCTYPE svg PUBLIC "-//W3C//DTD SVG 1.1//EN"
 "http://www.w3.org/Graphics/SVG/1.1/DTD/svg11.dtd">
<!-- Generated by graphviz version 2.44.1 (20200629.0846)
 -->
<!-- Title: Tree Pages: 1 -->
<svg width="867pt" height="671pt"
 viewBox="0.00 0.00 867.00 671.00" xmlns="http://www.w3.org/2000/svg" xmlns:xlink="http://www.w3.org/1999/xlink">
<g id="graph0" class="graph" transform="scale(1 1) rotate(0) translate(4 667)">
<title>Tree</title>
<polygon fill="white" stroke="transparent" points="-4,4 -4,-667 863,-667 863,4 -4,4"/>
<!-- 0 -->
<g id="node1" class="node">
<title>0</title>
<path fill="#ffffff" stroke="black" d="M520,-663C520,-663 385,-663 385,-663 379,-663 373,-657 373,-651 373,-651 373,-592 373,-592 373,-586 379,-580 385,-580 385,-580 520,-580 520,-580 526,-580 532,-586 532,-592 532,-592 532,-651 532,-651 532,-657 526,-663 520,-663"/>
<text text-anchor="start" x="381" y="-647.8" font-family="Helvetica,sans-Serif" font-size="14.00">petal length (cm) ≤ 2.45</text>
<text text-anchor="start" x="417" y="-632.8" font-family="Helvetica,sans-Serif" font-size="14.00">gini = 0.667</text>
<text text-anchor="start" x="407.5" y="-617.8" font-family="Helvetica,sans-Serif" font-size="14.00">samples = 150</text>
<text text-anchor="start" x="394.5" y="-602.8" font-family="Helvetica,sans-Serif" font-size="14.00">value = [50, 50, 50]</text>
<text text-anchor="start" x="409" y="-587.8" font-family="Helvetica,sans-Serif" font-size="14.00">class = setosa</text>
</g>
<!-- 1 -->
<g id="node2" class="node">
<title>1</title>
<path fill="#e58139" stroke="black" d="M422,-536.5C422,-536.5 329,-536.5 329,-536.5 323,-536.5 317,-530.5 317,-524.5 317,-524.5 317,-480.5 317,-480.5 317,-474.5 323,-468.5 329,-468.5 329,-468.5 422,-468.5 422,-468.5 428,-468.5 434,-474.5 434,-480.5 434,-480.5 434,-524.5 434,-524.5 434,-530.5 428,-536.5 422,-536.5"/>
<text text-anchor="start" x="347.5" y="-521.3" font-family="Helvetica,sans-Serif" font-size="14.00">gini = 0.0</text>
<text text-anchor="start" x="334.5" y="-506.3" font-family="Helvetica,sans-Serif" font-size="14.00">samples = 50</text>
<text text-anchor="start" x="325" y="-491.3" font-family="Helvetica,sans-Serif" font-size="14.00">value = [50, 0, 0]</text>
<text text-anchor="start" x="332" y="-476.3" font-family="Helvetica,sans-Serif" font-size="14.00">class = setosa</text>
</g>
<!-- 0&#45;&gt;1 -->
<g id="edge1" class="edge">
<title>0&#45;&gt;1</title>
<path fill="none" stroke="black" d="M425.79,-579.91C418.38,-568.65 410.33,-556.42 402.88,-545.11"/>
<polygon fill="black" stroke="black" points="405.75,-543.1 397.33,-536.67 399.9,-546.94 405.75,-543.1"/>
<text text-anchor="middle" x="392.28" y="-557.45" font-family="Helvetica,sans-Serif" font-size="14.00">True</text>
</g>
<!-- 2 -->
<g id="node3" class="node">
<title>2</title>
<path fill="#ffffff" stroke="black" d="M594.5,-544C594.5,-544 464.5,-544 464.5,-544 458.5,-544 452.5,-538 452.5,-532 452.5,-532 452.5,-473 452.5,-473 452.5,-467 458.5,-461 464.5,-461 464.5,-461 594.5,-461 594.5,-461 600.5,-461 606.5,-467 606.5,-473 606.5,-473 606.5,-532 606.5,-532 606.5,-538 600.5,-544 594.5,-544"/>
<text text-anchor="start" x="460.5" y="-528.8" font-family="Helvetica,sans-Serif" font-size="14.00">petal width (cm) ≤ 1.75</text>
<text text-anchor="start" x="501.5" y="-513.8" font-family="Helvetica,sans-Serif" font-size="14.00">gini = 0.5</text>
<text text-anchor="start" x="484.5" y="-498.8" font-family="Helvetica,sans-Serif" font-size="14.00">samples = 100</text>
<text text-anchor="start" x="475" y="-483.8" font-family="Helvetica,sans-Serif" font-size="14.00">value = [0, 50, 50]</text>
<text text-anchor="start" x="477" y="-468.8" font-family="Helvetica,sans-Serif" font-size="14.00">class = versicolor</text>
</g>
<!-- 0&#45;&gt;2 -->
<g id="edge2" class="edge">
<title>0&#45;&gt;2</title>
<path fill="none" stroke="black" d="M479.21,-579.91C485.01,-571.1 491.2,-561.7 497.18,-552.61"/>
<polygon fill="black" stroke="black" points="500.26,-554.3 502.83,-544.02 494.41,-550.45 500.26,-554.3"/>
<text text-anchor="middle" x="507.88" y="-564.81" font-family="Helvetica,sans-Serif" font-size="14.00">False</text>
</g>
<!-- 3 -->
<g id="node4" class="node">
<title>3</title>
<path fill="#4de88e" stroke="black" d="M484,-425C484,-425 349,-425 349,-425 343,-425 337,-419 337,-413 337,-413 337,-354 337,-354 337,-348 343,-342 349,-342 349,-342 484,-342 484,-342 490,-342 496,-348 496,-354 496,-354 496,-413 496,-413 496,-419 490,-425 484,-425"/>
<text text-anchor="start" x="345" y="-409.8" font-family="Helvetica,sans-Serif" font-size="14.00">petal length (cm) ≤ 4.95</text>
<text text-anchor="start" x="381" y="-394.8" font-family="Helvetica,sans-Serif" font-size="14.00">gini = 0.168</text>
<text text-anchor="start" x="375.5" y="-379.8" font-family="Helvetica,sans-Serif" font-size="14.00">samples = 54</text>
<text text-anchor="start" x="366" y="-364.8" font-family="Helvetica,sans-Serif" font-size="14.00">value = [0, 49, 5]</text>
<text text-anchor="start" x="364" y="-349.8" font-family="Helvetica,sans-Serif" font-size="14.00">class = versicolor</text>
</g>
<!-- 2&#45;&gt;3 -->
<g id="edge3" class="edge">
<title>2&#45;&gt;3</title>
<path fill="none" stroke="black" d="M490.3,-460.91C481.44,-451.74 471.96,-441.93 462.85,-432.49"/>
<polygon fill="black" stroke="black" points="465.1,-429.78 455.64,-425.02 460.07,-434.65 465.1,-429.78"/>
</g>
<!-- 12 -->
<g id="node13" class="node">
<title>12</title>
<path fill="#843de6" stroke="black" d="M710,-425C710,-425 575,-425 575,-425 569,-425 563,-419 563,-413 563,-413 563,-354 563,-354 563,-348 569,-342 575,-342 575,-342 710,-342 710,-342 716,-342 722,-348 722,-354 722,-354 722,-413 722,-413 722,-419 716,-425 710,-425"/>
<text text-anchor="start" x="571" y="-409.8" font-family="Helvetica,sans-Serif" font-size="14.00">petal length (cm) ≤ 4.85</text>
<text text-anchor="start" x="607" y="-394.8" font-family="Helvetica,sans-Serif" font-size="14.00">gini = 0.043</text>
<text text-anchor="start" x="601.5" y="-379.8" font-family="Helvetica,sans-Serif" font-size="14.00">samples = 46</text>
<text text-anchor="start" x="592" y="-364.8" font-family="Helvetica,sans-Serif" font-size="14.00">value = [0, 1, 45]</text>
<text text-anchor="start" x="594" y="-349.8" font-family="Helvetica,sans-Serif" font-size="14.00">class = virginica</text>
</g>
<!-- 2&#45;&gt;12 -->
<g id="edge12" class="edge">
<title>2&#45;&gt;12</title>
<path fill="none" stroke="black" d="M568.7,-460.91C577.56,-451.74 587.04,-441.93 596.15,-432.49"/>
<polygon fill="black" stroke="black" points="598.93,-434.65 603.36,-425.02 593.9,-429.78 598.93,-434.65"/>
</g>
<!-- 4 -->
<g id="node5" class="node">
<title>4</title>
<path fill="#3de684" stroke="black" d="M260.5,-306C260.5,-306 130.5,-306 130.5,-306 124.5,-306 118.5,-300 118.5,-294 118.5,-294 118.5,-235 118.5,-235 118.5,-229 124.5,-223 130.5,-223 130.5,-223 260.5,-223 260.5,-223 266.5,-223 272.5,-229 272.5,-235 272.5,-235 272.5,-294 272.5,-294 272.5,-300 266.5,-306 260.5,-306"/>
<text text-anchor="start" x="126.5" y="-290.8" font-family="Helvetica,sans-Serif" font-size="14.00">petal width (cm) ≤ 1.65</text>
<text text-anchor="start" x="160" y="-275.8" font-family="Helvetica,sans-Serif" font-size="14.00">gini = 0.041</text>
<text text-anchor="start" x="154.5" y="-260.8" font-family="Helvetica,sans-Serif" font-size="14.00">samples = 48</text>
<text text-anchor="start" x="145" y="-245.8" font-family="Helvetica,sans-Serif" font-size="14.00">value = [0, 47, 1]</text>
<text text-anchor="start" x="143" y="-230.8" font-family="Helvetica,sans-Serif" font-size="14.00">class = versicolor</text>
</g>
<!-- 3&#45;&gt;4 -->
<g id="edge4" class="edge">
<title>3&#45;&gt;4</title>
<path fill="none" stroke="black" d="M339.83,-341.91C320.88,-331.88 300.47,-321.07 281.14,-310.84"/>
<polygon fill="black" stroke="black" points="282.51,-307.61 272.04,-306.02 279.24,-313.79 282.51,-307.61"/>
</g>
<!-- 7 -->
<g id="node8" class="node">
<title>7</title>
<path fill="#c09cf2" stroke="black" d="M481.5,-306C481.5,-306 351.5,-306 351.5,-306 345.5,-306 339.5,-300 339.5,-294 339.5,-294 339.5,-235 339.5,-235 339.5,-229 345.5,-223 351.5,-223 351.5,-223 481.5,-223 481.5,-223 487.5,-223 493.5,-229 493.5,-235 493.5,-235 493.5,-294 493.5,-294 493.5,-300 487.5,-306 481.5,-306"/>
<text text-anchor="start" x="347.5" y="-290.8" font-family="Helvetica,sans-Serif" font-size="14.00">petal width (cm) ≤ 1.55</text>
<text text-anchor="start" x="381" y="-275.8" font-family="Helvetica,sans-Serif" font-size="14.00">gini = 0.444</text>
<text text-anchor="start" x="379" y="-260.8" font-family="Helvetica,sans-Serif" font-size="14.00">samples = 6</text>
<text text-anchor="start" x="369.5" y="-245.8" font-family="Helvetica,sans-Serif" font-size="14.00">value = [0, 2, 4]</text>
<text text-anchor="start" x="368" y="-230.8" font-family="Helvetica,sans-Serif" font-size="14.00">class = virginica</text>
</g>
<!-- 3&#45;&gt;7 -->
<g id="edge7" class="edge">
<title>3&#45;&gt;7</title>
<path fill="none" stroke="black" d="M416.5,-341.91C416.5,-333.65 416.5,-324.86 416.5,-316.3"/>
<polygon fill="black" stroke="black" points="420,-316.02 416.5,-306.02 413,-316.02 420,-316.02"/>
</g>
<!-- 5 -->
<g id="node6" class="node">
<title>5</title>
<path fill="#39e581" stroke="black" d="M109,-179.5C109,-179.5 12,-179.5 12,-179.5 6,-179.5 0,-173.5 0,-167.5 0,-167.5 0,-123.5 0,-123.5 0,-117.5 6,-111.5 12,-111.5 12,-111.5 109,-111.5 109,-111.5 115,-111.5 121,-117.5 121,-123.5 121,-123.5 121,-167.5 121,-167.5 121,-173.5 115,-179.5 109,-179.5"/>
<text text-anchor="start" x="32.5" y="-164.3" font-family="Helvetica,sans-Serif" font-size="14.00">gini = 0.0</text>
<text text-anchor="start" x="19.5" y="-149.3" font-family="Helvetica,sans-Serif" font-size="14.00">samples = 47</text>
<text text-anchor="start" x="10" y="-134.3" font-family="Helvetica,sans-Serif" font-size="14.00">value = [0, 47, 0]</text>
<text text-anchor="start" x="8" y="-119.3" font-family="Helvetica,sans-Serif" font-size="14.00">class = versicolor</text>
</g>
<!-- 4&#45;&gt;5 -->
<g id="edge5" class="edge">
<title>4&#45;&gt;5</title>
<path fill="none" stroke="black" d="M148.66,-222.91C135.04,-211.1 120.17,-198.22 106.6,-186.45"/>
<polygon fill="black" stroke="black" points="108.62,-183.57 98.77,-179.67 104.03,-188.86 108.62,-183.57"/>
</g>
<!-- 6 -->
<g id="node7" class="node">
<title>6</title>
<path fill="#8139e5" stroke="black" d="M240,-179.5C240,-179.5 151,-179.5 151,-179.5 145,-179.5 139,-173.5 139,-167.5 139,-167.5 139,-123.5 139,-123.5 139,-117.5 145,-111.5 151,-111.5 151,-111.5 240,-111.5 240,-111.5 246,-111.5 252,-117.5 252,-123.5 252,-123.5 252,-167.5 252,-167.5 252,-173.5 246,-179.5 240,-179.5"/>
<text text-anchor="start" x="167.5" y="-164.3" font-family="Helvetica,sans-Serif" font-size="14.00">gini = 0.0</text>
<text text-anchor="start" x="158" y="-149.3" font-family="Helvetica,sans-Serif" font-size="14.00">samples = 1</text>
<text text-anchor="start" x="148.5" y="-134.3" font-family="Helvetica,sans-Serif" font-size="14.00">value = [0, 0, 1]</text>
<text text-anchor="start" x="147" y="-119.3" font-family="Helvetica,sans-Serif" font-size="14.00">class = virginica</text>
</g>
<!-- 4&#45;&gt;6 -->
<g id="edge6" class="edge">
<title>4&#45;&gt;6</title>
<path fill="none" stroke="black" d="M195.5,-222.91C195.5,-212.2 195.5,-200.62 195.5,-189.78"/>
<polygon fill="black" stroke="black" points="199,-189.67 195.5,-179.67 192,-189.67 199,-189.67"/>
</g>
<!-- 8 -->
<g id="node9" class="node">
<title>8</title>
<path fill="#8139e5" stroke="black" d="M371,-179.5C371,-179.5 282,-179.5 282,-179.5 276,-179.5 270,-173.5 270,-167.5 270,-167.5 270,-123.5 270,-123.5 270,-117.5 276,-111.5 282,-111.5 282,-111.5 371,-111.5 371,-111.5 377,-111.5 383,-117.5 383,-123.5 383,-123.5 383,-167.5 383,-167.5 383,-173.5 377,-179.5 371,-179.5"/>
<text text-anchor="start" x="298.5" y="-164.3" font-family="Helvetica,sans-Serif" font-size="14.00">gini = 0.0</text>
<text text-anchor="start" x="289" y="-149.3" font-family="Helvetica,sans-Serif" font-size="14.00">samples = 3</text>
<text text-anchor="start" x="279.5" y="-134.3" font-family="Helvetica,sans-Serif" font-size="14.00">value = [0, 0, 3]</text>
<text text-anchor="start" x="278" y="-119.3" font-family="Helvetica,sans-Serif" font-size="14.00">class = virginica</text>
</g>
<!-- 7&#45;&gt;8 -->
<g id="edge8" class="edge">
<title>7&#45;&gt;8</title>
<path fill="none" stroke="black" d="M385.27,-222.91C376.53,-211.54 367.02,-199.18 358.25,-187.77"/>
<polygon fill="black" stroke="black" points="360.88,-185.46 352.01,-179.67 355.34,-189.73 360.88,-185.46"/>
</g>
<!-- 9 -->
<g id="node10" class="node">
<title>9</title>
<path fill="#9cf2c0" stroke="black" d="M551.5,-187C551.5,-187 413.5,-187 413.5,-187 407.5,-187 401.5,-181 401.5,-175 401.5,-175 401.5,-116 401.5,-116 401.5,-110 407.5,-104 413.5,-104 413.5,-104 551.5,-104 551.5,-104 557.5,-104 563.5,-110 563.5,-116 563.5,-116 563.5,-175 563.5,-175 563.5,-181 557.5,-187 551.5,-187"/>
<text text-anchor="start" x="409.5" y="-171.8" font-family="Helvetica,sans-Serif" font-size="14.00">sepal length (cm) ≤ 6.95</text>
<text text-anchor="start" x="447" y="-156.8" font-family="Helvetica,sans-Serif" font-size="14.00">gini = 0.444</text>
<text text-anchor="start" x="445" y="-141.8" font-family="Helvetica,sans-Serif" font-size="14.00">samples = 3</text>
<text text-anchor="start" x="435.5" y="-126.8" font-family="Helvetica,sans-Serif" font-size="14.00">value = [0, 2, 1]</text>
<text text-anchor="start" x="430" y="-111.8" font-family="Helvetica,sans-Serif" font-size="14.00">class = versicolor</text>
</g>
<!-- 7&#45;&gt;9 -->
<g id="edge9" class="edge">
<title>7&#45;&gt;9</title>
<path fill="none" stroke="black" d="M439.4,-222.91C444.31,-214.2 449.56,-204.9 454.64,-195.89"/>
<polygon fill="black" stroke="black" points="457.78,-197.45 459.64,-187.02 451.68,-194.01 457.78,-197.45"/>
</g>
<!-- 10 -->
<g id="node11" class="node">
<title>10</title>
<path fill="#39e581" stroke="black" d="M463,-68C463,-68 366,-68 366,-68 360,-68 354,-62 354,-56 354,-56 354,-12 354,-12 354,-6 360,0 366,0 366,0 463,0 463,0 469,0 475,-6 475,-12 475,-12 475,-56 475,-56 475,-62 469,-68 463,-68"/>
<text text-anchor="start" x="386.5" y="-52.8" font-family="Helvetica,sans-Serif" font-size="14.00">gini = 0.0</text>
<text text-anchor="start" x="377" y="-37.8" font-family="Helvetica,sans-Serif" font-size="14.00">samples = 2</text>
<text text-anchor="start" x="367.5" y="-22.8" font-family="Helvetica,sans-Serif" font-size="14.00">value = [0, 2, 0]</text>
<text text-anchor="start" x="362" y="-7.8" font-family="Helvetica,sans-Serif" font-size="14.00">class = versicolor</text>
</g>
<!-- 9&#45;&gt;10 -->
<g id="edge10" class="edge">
<title>9&#45;&gt;10</title>
<path fill="none" stroke="black" d="M457.18,-103.73C451.74,-94.97 445.99,-85.7 440.52,-76.91"/>
<polygon fill="black" stroke="black" points="443.43,-74.95 435.18,-68.3 437.48,-78.64 443.43,-74.95"/>
</g>
<!-- 11 -->
<g id="node12" class="node">
<title>11</title>
<path fill="#8139e5" stroke="black" d="M594,-68C594,-68 505,-68 505,-68 499,-68 493,-62 493,-56 493,-56 493,-12 493,-12 493,-6 499,0 505,0 505,0 594,0 594,0 600,0 606,-6 606,-12 606,-12 606,-56 606,-56 606,-62 600,-68 594,-68"/>
<text text-anchor="start" x="521.5" y="-52.8" font-family="Helvetica,sans-Serif" font-size="14.00">gini = 0.0</text>
<text text-anchor="start" x="512" y="-37.8" font-family="Helvetica,sans-Serif" font-size="14.00">samples = 1</text>
<text text-anchor="start" x="502.5" y="-22.8" font-family="Helvetica,sans-Serif" font-size="14.00">value = [0, 0, 1]</text>
<text text-anchor="start" x="501" y="-7.8" font-family="Helvetica,sans-Serif" font-size="14.00">class = virginica</text>
</g>
<!-- 9&#45;&gt;11 -->
<g id="edge11" class="edge">
<title>9&#45;&gt;11</title>
<path fill="none" stroke="black" d="M507.45,-103.73C512.81,-94.97 518.48,-85.7 523.86,-76.91"/>
<polygon fill="black" stroke="black" points="526.89,-78.66 529.12,-68.3 520.92,-75 526.89,-78.66"/>
</g>
<!-- 13 -->
<g id="node14" class="node">
<title>13</title>
<path fill="#c09cf2" stroke="black" d="M711.5,-306C711.5,-306 573.5,-306 573.5,-306 567.5,-306 561.5,-300 561.5,-294 561.5,-294 561.5,-235 561.5,-235 561.5,-229 567.5,-223 573.5,-223 573.5,-223 711.5,-223 711.5,-223 717.5,-223 723.5,-229 723.5,-235 723.5,-235 723.5,-294 723.5,-294 723.5,-300 717.5,-306 711.5,-306"/>
<text text-anchor="start" x="569.5" y="-290.8" font-family="Helvetica,sans-Serif" font-size="14.00">sepal length (cm) ≤ 5.95</text>
<text text-anchor="start" x="607" y="-275.8" font-family="Helvetica,sans-Serif" font-size="14.00">gini = 0.444</text>
<text text-anchor="start" x="605" y="-260.8" font-family="Helvetica,sans-Serif" font-size="14.00">samples = 3</text>
<text text-anchor="start" x="595.5" y="-245.8" font-family="Helvetica,sans-Serif" font-size="14.00">value = [0, 1, 2]</text>
<text text-anchor="start" x="594" y="-230.8" font-family="Helvetica,sans-Serif" font-size="14.00">class = virginica</text>
</g>
<!-- 12&#45;&gt;13 -->
<g id="edge13" class="edge">
<title>12&#45;&gt;13</title>
<path fill="none" stroke="black" d="M642.5,-341.91C642.5,-333.65 642.5,-324.86 642.5,-316.3"/>
<polygon fill="black" stroke="black" points="646,-316.02 642.5,-306.02 639,-316.02 646,-316.02"/>
</g>
<!-- 16 -->
<g id="node17" class="node">
<title>16</title>
<path fill="#8139e5" stroke="black" d="M847,-298.5C847,-298.5 754,-298.5 754,-298.5 748,-298.5 742,-292.5 742,-286.5 742,-286.5 742,-242.5 742,-242.5 742,-236.5 748,-230.5 754,-230.5 754,-230.5 847,-230.5 847,-230.5 853,-230.5 859,-236.5 859,-242.5 859,-242.5 859,-286.5 859,-286.5 859,-292.5 853,-298.5 847,-298.5"/>
<text text-anchor="start" x="772.5" y="-283.3" font-family="Helvetica,sans-Serif" font-size="14.00">gini = 0.0</text>
<text text-anchor="start" x="759.5" y="-268.3" font-family="Helvetica,sans-Serif" font-size="14.00">samples = 43</text>
<text text-anchor="start" x="750" y="-253.3" font-family="Helvetica,sans-Serif" font-size="14.00">value = [0, 0, 43]</text>
<text text-anchor="start" x="752" y="-238.3" font-family="Helvetica,sans-Serif" font-size="14.00">class = virginica</text>
</g>
<!-- 12&#45;&gt;16 -->
<g id="edge16" class="edge">
<title>12&#45;&gt;16</title>
<path fill="none" stroke="black" d="M697.32,-341.91C713.56,-329.88 731.31,-316.73 747.44,-304.79"/>
<polygon fill="black" stroke="black" points="749.76,-307.43 755.71,-298.67 745.59,-301.81 749.76,-307.43"/>
</g>
<!-- 14 -->
<g id="node15" class="node">
<title>14</title>
<path fill="#39e581" stroke="black" d="M691,-179.5C691,-179.5 594,-179.5 594,-179.5 588,-179.5 582,-173.5 582,-167.5 582,-167.5 582,-123.5 582,-123.5 582,-117.5 588,-111.5 594,-111.5 594,-111.5 691,-111.5 691,-111.5 697,-111.5 703,-117.5 703,-123.5 703,-123.5 703,-167.5 703,-167.5 703,-173.5 697,-179.5 691,-179.5"/>
<text text-anchor="start" x="614.5" y="-164.3" font-family="Helvetica,sans-Serif" font-size="14.00">gini = 0.0</text>
<text text-anchor="start" x="605" y="-149.3" font-family="Helvetica,sans-Serif" font-size="14.00">samples = 1</text>
<text text-anchor="start" x="595.5" y="-134.3" font-family="Helvetica,sans-Serif" font-size="14.00">value = [0, 1, 0]</text>
<text text-anchor="start" x="590" y="-119.3" font-family="Helvetica,sans-Serif" font-size="14.00">class = versicolor</text>
</g>
<!-- 13&#45;&gt;14 -->
<g id="edge14" class="edge">
<title>13&#45;&gt;14</title>
<path fill="none" stroke="black" d="M642.5,-222.91C642.5,-212.2 642.5,-200.62 642.5,-189.78"/>
<polygon fill="black" stroke="black" points="646,-189.67 642.5,-179.67 639,-189.67 646,-189.67"/>
</g>
<!-- 15 -->
<g id="node16" class="node">
<title>15</title>
<path fill="#8139e5" stroke="black" d="M822,-179.5C822,-179.5 733,-179.5 733,-179.5 727,-179.5 721,-173.5 721,-167.5 721,-167.5 721,-123.5 721,-123.5 721,-117.5 727,-111.5 733,-111.5 733,-111.5 822,-111.5 822,-111.5 828,-111.5 834,-117.5 834,-123.5 834,-123.5 834,-167.5 834,-167.5 834,-173.5 828,-179.5 822,-179.5"/>
<text text-anchor="start" x="749.5" y="-164.3" font-family="Helvetica,sans-Serif" font-size="14.00">gini = 0.0</text>
<text text-anchor="start" x="740" y="-149.3" font-family="Helvetica,sans-Serif" font-size="14.00">samples = 2</text>
<text text-anchor="start" x="730.5" y="-134.3" font-family="Helvetica,sans-Serif" font-size="14.00">value = [0, 0, 2]</text>
<text text-anchor="start" x="729" y="-119.3" font-family="Helvetica,sans-Serif" font-size="14.00">class = virginica</text>
</g>
<!-- 13&#45;&gt;15 -->
<g id="edge15" class="edge">
<title>13&#45;&gt;15</title>
<path fill="none" stroke="black" d="M689.34,-222.91C702.96,-211.1 717.83,-198.22 731.4,-186.45"/>
<polygon fill="black" stroke="black" points="733.97,-188.86 739.23,-179.67 729.38,-183.57 733.97,-188.86"/>
</g>
</g>
</svg>
